<?xml version="1.0" standalone="no"?>
<!DOCTYPE svg PUBLIC "-//W3C//DTD SVG 1.1//EN" "http://www.w3.org/Graphics/SVG/1.1/DTD/svg11.dtd" >
<!--
2013-9-30: Created.
-->
<svg>
<metadata>
Created by iconfont
</metadata>
<defs>

<font id="jeiconfont" horiz-adv-x="1024" >
  <font-face
    font-family="jeiconfont"
    font-weight="500"
    font-stretch="normal"
    units-per-em="1024"
    ascent="896"
    descent="-128"
  />
    <missing-glyph />
    
    <glyph glyph-name="diamond" unicode="&#59007;" d="M948.90666667 500.50844445C948.90666667 500.50844445 948.90666667 500.50844445 948.90666667 500.50844445c0 7.28177778 0 14.56355555-7.28177778 21.84533333 0 0 0 0 0 0l-160.19911111 240.29866667c0 0 0 0 0 0 0 0-7.28177778 7.28177778-7.28177778 7.28177777 0 0 0 0-7.28177778 0 0 0 0 0 0 0 0 0-7.28177778 0-7.28177777 0 0 0 0 0-7.28177778 0L271.70133333 769.93422222c0 0 0 0-7.28177778 0 0 0-7.28177778 0-7.28177777 0 0 0 0 0 0 0 0 0 0 0-7.28177778 0 0 0-7.28177778-7.28177778-7.28177778-7.28177777 0 0 0 0 0 0L82.37511111 522.35377778c0 0 0 0 0 0C75.09333333 515.072 75.09333333 507.79022222 75.09333333 500.50844445c0 0 0 0 0 0 0 0 0 0 0 0 0-7.28177778 0-14.56355555 7.28177778-14.56355556 0 0 0 0 0 0l400.49777778-480.59733334c0 0 0 0 7.28177778-7.28177777 0 0 0 0 7.28177778 0 7.28177778 0 14.56355555-7.28177778 21.84533333-7.28177778s14.56355555 0 21.84533333 7.28177778c0 0 0 0 7.28177778 0 0 0 0 0 7.28177778 7.28177777l400.49777778 480.59733334c0 0 0 0 0 0C941.62488889 485.94488889 948.90666667 493.22666667 948.90666667 500.50844445 948.90666667 500.50844445 948.90666667 500.50844445 948.90666667 500.50844445zM257.13777778 660.70755555l43.69066667-123.79022222L177.03822222 536.91733333 257.13777778 660.70755555zM621.22666667 464.09955555L512 136.41955555000004 402.77333333 464.09955555 621.22666667 464.09955555zM417.33688889 536.91733333L512 675.27111111l94.66311111-138.35377778L417.33688889 536.91733333zM577.536 711.6800000000001l123.79022222 0L657.63555555 587.88977778 577.536 711.6800000000001zM366.36444445 587.88977778L322.67377778 711.6800000000001l123.79022222 0L366.36444445 587.88977778zM322.67377778 464.09955555l87.38133333-269.42577777L191.60177778 464.09955555 322.67377778 464.09955555zM701.32622222 464.09955555l138.35377778 0-225.73511111-269.42577777L701.32622222 464.09955555zM723.17155555 536.91733333l43.69066667 123.79022222 80.09955556-123.79022222L723.17155555 536.91733333z"  horiz-adv-x="1024" />

    
    <glyph glyph-name="table" unicode="&#59015;" d="M894.21875 777.75H129.78125C108.875 777.75 92 760.875 92 739.96875v-711.9375C92 7.125 108.875-9.75 129.78125-9.75h764.4375c20.90625 0 37.78125 16.875 37.78125 37.78125V739.96875C932 760.875 915.125 777.75 894.21875 777.75zM354.5 42.75H144.5V147.75h210v-105z m0 157.5H144.5V305.25h210v-105z m0 157.5H144.5V462.75h210v-105z m0 157.5H144.5V620.25h210v-105z m262.5-472.5H407V147.75h210v-105z m0 157.5H407V305.25h210v-105z m0 157.5H407V462.75h210v-105z m0 157.5H407V620.25h210v-105z m262.5-472.5H669.5V147.75h210v-105z m0 157.5H669.5V305.25h210v-105z m0 157.5H669.5V462.75h210v-105z m0 157.5H669.5V620.25h210v-105z"  horiz-adv-x="1024" />

    
    <glyph glyph-name="member" unicode="&#59153;" d="M938.4464 527.1312l-171.8112 222.288A73.0512 73.0512 0 0 1 709.2128 777.6h-399.216a73.0608 73.0608 0 0 1-57.432-28.1808l-171.8112-222.288a72.3168 72.3168 0 0 1 3.6096-92.8512l371.424-410.4a72.6 72.6 0 0 1 107.6352 0l371.4288 410.4a72.3264 72.3264 0 0 1 3.5952 92.8512z m-52.8-48.432l-371.4192-410.4a6.24 6.24 0 0 0-9.2256 0l-371.4144 410.4a6.1872 6.1872 0 0 0-0.312 7.9488L305.072 708.96a6.24 6.24 0 0 0 4.9248 2.4h399.2208a6.24 6.24 0 0 0 4.9152-2.4L885.92 486.648a6.1968 6.1968 0 0 0-0.288-7.9488z m-222.6048-5.8272l-148.8-164.4336a6.24 6.24 0 0 0-9.2256 0L352.9808 476.4048A33.144 33.144 0 0 1 303.776 432l152.0064-168a72.5952 72.5952 0 0 1 107.6352 0l148.8 164.4336a33.144 33.144 0 0 1-49.1904 44.4384z"  horiz-adv-x="1024" />

    
    <glyph glyph-name="seek" unicode="&#59154;" d="M491.6912 235.77120000000002a192.7872 192.7872 0 0 0-187.4928 146.1456 32.5824 32.5824 0 0 1-63.2304-15.7392 257.8368 257.8368 0 0 1 250.7232-195.4992 32.5488 32.5488 0 1 1 0 65.0928z m414.1728-228.4272l-146.1216 148.656a383.1888 383.1888 0 1 1-50.4-41.64l150.0096-152.64a32.5632 32.5632 0 0 1 46.512 45.624zM173.9696 428.76a317.7216 317.7216 0 1 0 317.7216-317.3472 317.8992 317.8992 0 0 0-317.7216 317.3472z"  horiz-adv-x="1024" />

    
    <glyph glyph-name="starrat" unicode="&#59155;" d="M922.76 387.912a101.8512 101.8512 0 0 1-56.4576 173.76l-166.08 24.1344A33.1968 33.1968 0 0 0 675.2 603.9456l-74.256 150.4752a101.8656 101.8656 0 0 1-182.688 0L344 603.9504a33.192 33.192 0 0 0-25.008-18.168l-166.08-24.1344a101.8512 101.8512 0 0 1-56.4576-173.76l120.1728-117.12a33.192 33.192 0 0 0 9.5568-29.3856l-28.368-165.384a101.76 101.76 0 0 1 147.8064-107.3856l148.5456 78.0912a33.216 33.216 0 0 0 30.9024 0l148.5504-78.0912a101.8656 101.8656 0 0 1 147.7968 107.3808l-28.368 165.384a33.192 33.192 0 0 0 9.5568 29.3904z m-168.1008-67.968a101.8416 101.8416 0 0 1-29.28-90.1536l28.368-165.3888a33.2064 33.2064 0 0 0-48.1824-35.0064l-148.5504 78.0912a101.88 101.88 0 0 1-94.8048 0l-148.5552-78.0912a33.2112 33.2112 0 0 0-48.1872 35.0064l28.368 165.3936a101.8272 101.8272 0 0 1-29.28 90.1488L144.368 437.0784a33.1968 33.1968 0 0 0 18.3984 56.64l166.08 24.1344a101.8656 101.8656 0 0 1 76.704 55.7184L479.84 724.0416a33.2112 33.2112 0 0 0 59.5584 0l74.2752-150.4752a101.8368 101.8368 0 0 1 76.6944-55.7232l166.08-24.1344a33.1968 33.1968 0 0 0 18.3984-56.64z m-124.7424 135.7296l-140.8176-161.376-81.4032 68.9616a34.3296 34.3296 0 1 1-44.3856-52.3824l81.8256-69.312a68.3808 68.3808 0 0 1 95.3376 7.2l141.1824 161.7888a34.3296 34.3296 0 0 1-51.7392 45.12z"  horiz-adv-x="1024" />

    
    <glyph glyph-name="speed" unicode="&#59156;" d="M867.4736 795.6192C641.2112 809.76 500.96 693.288 463.3472 657.2688a5.7984 5.7984 0 0 0-4.0512-1.5792H277.4288a71.52 71.52 0 0 1-52.32-22.8576L108.7232 507.192A71.4528 71.4528 0 0 1 145.9376 388.8l97.8288-21.216a6.0144 6.0144 0 0 0 4.4976-7.56l-6.0672-20.8272a71.7408 71.7408 0 0 1 16.5408-68.9424l133.0464-141.504a71.3712 71.3712 0 0 1 69.2736-20.3424l46.6224 11.688a6.0096 6.0096 0 0 0 7.3824-4.8336l14.3136-84.528a71.2944 71.2944 0 0 1 121.7664-37.5888l110.0208 114.4464a71.1072 71.1072 0 0 1 19.9392 49.2336c0.1152 30.1392 0.6144 106.1808 2.7792 161.2464a6.504 6.504 0 0 0 1.6128 3.84c129.8688 155.856 147.1872 303.504 148.9056 400.9968a71.3568 71.3568 0 0 1-66.9264 72.7104z m-132.1584-431.832a72.2688 72.2688 0 0 1-16.728-43.152c-2.1216-54.0864-2.6784-125.6928-2.8272-163.56a5.976 5.976 0 0 0-1.6752-4.128l-110.0256-114.4512a6.0096 6.0096 0 0 0-10.2576 3.1632l-14.3136 84.5328a71.3808 71.3808 0 0 1-87.648 57.3552l-46.6224-11.664a6.0192 6.0192 0 0 0-5.8464 1.7088l-133.056 141.5088a6.0576 6.0576 0 0 0-1.392 5.808l6.0672 20.8224A71.4288 71.4288 0 0 1 257.6 431.52l-97.8288 21.2256a6.0192 6.0192 0 0 0-3.1392 9.9696l116.3856 125.6448a6.048 6.048 0 0 0 4.4112 1.92H459.296a70.824 70.824 0 0 1 49.224 19.728c32.7648 31.368 155.088 132.7872 354.8976 120.3312a6.1008 6.1008 0 0 0 5.6592-6.264c-1.5552-87.5952-17.112-220.2768-133.7616-360.288z m-463.5936-158.7504a78.7632 78.7632 0 0 1-133.4112-38.6736L124.5488 101.75999999999999a78.792 78.792 0 0 1 89.6016-94.3152l66.3648 10.7136a78.8928 78.8928 0 0 1 43.8048 132.9984z m9.024-113.2224a12.96 12.96 0 0 0-10.632-9.0768L203.7488 72a13.44 13.44 0 0 0-15.3024 16.104l13.7664 64.5936a12.96 12.96 0 0 0 9.4128 10.1232 14.5824 14.5824 0 0 0 3.9936 0.576 12.7584 12.7584 0 0 0 9.3696-4.0992l52.5984-53.88a12.96 12.96 0 0 0 3.1584-13.6032z m467.6496 618.5136a87.36 87.36 0 1 1 87.2592-87.36 87.3984 87.3984 0 0 1-87.2592 87.36z m0-109.2768a21.936 21.936 0 1 0 21.9168 21.936 21.9456 21.9456 0 0 0-21.9168-21.936z"  horiz-adv-x="1024" />

    
    <glyph glyph-name="fax" unicode="&#59157;" d="M957.44 483.19488c0 85.59104-70.82496 155.27936-158.15168 155.98592V738.44224A76.288 76.288 0 0 1 722.57024 814.08h-411.136A76.288 76.288 0 0 1 234.7008 738.44224v-99.23072h-3.53792C143.22176 639.2115200000001 71.68 569.2211199999999 71.68 483.19488v-307.1488h155.71968v-146.48832A75.60192 75.60192 0 0 1 302.80192-46.08000000000004h418.65216a75.60192 75.60192 0 0 1 75.40224 75.63776v146.48832H957.44v307.1488zM305.37216 738.44224a5.56544 5.56544 0 0 0 6.04672 4.74112h411.136a5.56544 5.56544 0 0 0 6.04672-4.74112v-99.23072H305.37216V738.44224z m420.8128-708.88448a4.74112 4.74112 0 0 0-4.73088-4.74624H302.80192a4.74112 4.74112 0 0 0-4.72576 4.74624v217.38496h428.11392v-217.38496z m160.59904 217.38496h-89.92768v70.89152H227.39968v-70.89152H142.336V483.19488C142.336 530.1299200000001 182.19008 568.3199999999999 231.16288 568.3199999999999h566.784c48.9728 0 88.81152-38.19008 88.81152-85.12512v-236.25216zM508.47744 506.88H265.16992a35.44576 35.44576 0 0 1 0-70.89152h243.30752a35.44576 35.44576 0 0 1 0 70.89152z"  horiz-adv-x="1024" />

    
    <glyph glyph-name="world" unicode="&#59162;" d="M861.368 606.816c30.456 72.6912 34.8576 133.92-0.5232 169.44-25.92 26.0256-80.8896 45.0768-195.4608-11.2944a407.832 407.832 0 0 1-147.2304 27.4464c-226.872 0-411.4464-185.28-411.4464-413.0016a412.2048 412.2048 0 0 1 26.6448-146.016c-58.9536-117.9984-40.2576-174.4896-13.7136-201.12 13.7328-13.7856 35.2752-25.3824 68.9088-25.3824 26.6976 0 61.056 7.368 105.12 26.6976A407.8224 407.8224 0 0 1 518.1536-33.60000000000002C745.0256-33.60000000000002 929.6 151.67999999999995 929.6 379.40160000000003a411.6096 411.6096 0 0 1-68.232 227.4144z m-47.0736 122.7072c8.5632-8.5968 8.8128-30.5424-0.96-62.8416a414.7536 414.7536 0 0 1-71.4 59.04c43.704 14.8176 65.6928 10.4928 72.36 3.8016z m-296.16-3.2016a344.5632 344.5632 0 0 0 267.0672-126.9792C748.0784 526.56 680 429.5328 572.528 321.648 467.2112 215.93280000000004 372.2336 148.1472 300.2288 110.39999999999998a346.8624 346.8624 0 0 0-127.68 269.0208c-0.0144 191.2752 155.0304 346.9008 345.6048 346.9008zM166.1888 78.96960000000001c-6.624 6.648-11.1456 30.456 5.6736 77.8272a415.68 415.68 0 0 1 61.7856-75.3216c-34.8336-11.3328-58.4784-11.5248-67.4592-2.5056z m351.9648-46.488a342.3264 342.3264 0 0 0-155.232 37.104c81.2688 48.0864 171.0912 119.9472 256.1568 205.3344C702.416 358.55999999999995 777.0656 451.7616 826.088 536.64a345.768 345.768 0 0 0 37.68-157.2192c0-191.3136-155.04-346.9392-345.6144-346.9392z"  horiz-adv-x="1024" />

    
    <glyph glyph-name="sex" unicode="&#59163;" d="M742.5104 444.0624V670.9728l147.4992-142.08a34.5984 34.5984 0 1 1 48.192 49.6512l-181.8576 175.2a74.4528 74.4528 0 0 1-103.8768-1.0224l-122.8368-123.1248a230.88 230.88 0 1 1-256.8384-308.7504v-74.5008H109.8656a34.56 34.56 0 1 1 0-69.072h162.9264v-150.24a34.6656 34.6656 0 0 1 69.3312 0v150.24h142.56a231.0048 231.0048 0 1 1 257.8272 266.7888zM152.0432 547.3776a161.76 161.76 0 1 0 161.76-161.1696 161.6496 161.6496 0 0 0-161.76 161.1696z m331.416-301.032H342.1232v72.5856a230.832 230.832 0 0 1 202.7856 228l128.2704 128.5488v-232.8a231.0816 231.0816 0 0 1-189.72-196.3344z m229.008-191.6736a161.1648 161.1648 0 1 0 161.76 161.1648 161.6496 161.6496 0 0 0-161.76-161.1648z"  horiz-adv-x="1024" />

    
    <glyph glyph-name="flysend" unicode="&#59164;" d="M793.9808-52.799999999999955a70.656 70.656 0 0 0-47.6592 18.5712L591.2 106.84799999999996a2.9904 2.9904 0 0 1-2.2848 0.7968 2.9616 2.9616 0 0 1-2.16-1.0992l-62.2032-74.2656A71.0976 71.0976 0 0 0 400.64 62.39999999999998l-44.4288 198.5232a3.1056 3.1056 0 0 1-2.0544 2.2608l-201.2784 66.1872a71.1456 71.1456 0 0 0-10.416 130.7952l673.8192 347.9088a71.112 71.112 0 0 0 103.5264-68.5536l-54.72-726.4608a70.6704 70.6704 0 0 0-44.64-60.7488 71.4624 71.4624 0 0 0-26.4672-5.112z m-204.9264 228.48a71.4816 71.4816 0 0 0 47.8992-18.4944l155.1216-141.0768a3.096 3.096 0 0 1 5.1696 2.0544l54.72 726.456a3.0864 3.0864 0 0 1-4.4976 2.9712L173.6576 399.7008a3.0912 3.0912 0 0 1 0.4512-5.6832L375.4016 327.84000000000003a71.4624 71.4624 0 0 0 47.1984-52.0416L467.024 77.27999999999997a3.0912 3.0912 0 0 1 5.3856-1.3056L534.608 150.24a71.4576 71.4576 0 0 0 49.6944 25.2912q2.376 0.1488 4.752 0.1488z m-90.8592-12.4224a34.0128 34.0128 0 0 0-33.864 31.368l-6.9264 88.4112a86.7696 86.7696 0 0 0 22.7184 65.4912l226.56 245.0112a34.0176 34.0176 0 1 0 49.92-46.2048l-226.56-245.0112a18.5232 18.5232 0 0 1-4.848-13.968l6.9264-88.416a34.0176 34.0176 0 0 0-31.2432-36.576 41.28 41.28 0 0 0-2.6832-0.0912z"  horiz-adv-x="1024" />

    
    <glyph glyph-name="edits" unicode="&#59165;" d="M825.944 443.5488a33.888 33.888 0 0 1-33.9312-33.8448v-294.336a81.48 81.48 0 0 0-81.4944-81.288H238.9568a81.48 81.48 0 0 0-81.4896 81.2832V585.6912a81.48 81.48 0 0 0 81.4896 81.2832H534.08a33.8448 33.8448 0 1 1 0 67.68H238.9568A149.3328 149.3328 0 0 1 89.6 585.6912v-470.328A149.3328 149.3328 0 0 1 238.9568-33.60000000000002h471.5616a149.3328 149.3328 0 0 1 149.3616 148.968v294.336a33.8928 33.8928 0 0 1-33.936 33.8448z m82.4496 259.6128l-77.5584 77.352a72.6384 72.6384 0 0 1-102.3984 0L363.3776 416.4048l-0.0432-0.048-0.0384-0.0288c-0.0576-0.0576-0.0912-0.1248-0.1488-0.1824a72.072 72.072 0 0 1-19.2-34.9488L315.7568 256.32000000000005a53.0928 53.0928 0 0 1 51.8064-64.6752 53.7936 53.7936 0 0 1 10.2096 0.96l128.6016 24.9264a72.24 72.24 0 0 1 37.3968 19.824l0.0816 0.0768 364.5408 363.5952a72.1728 72.1728 0 0 1 0 102.1344zM402.008 330.24l54.0336-53.5344-69.12-13.3968z m458.4 318.624L519.68 309.072 435.44 392.5536l340.9872 340.0944a4.5552 4.5552 0 0 0 6.4224 0l77.5536-77.3472a4.5264 4.5264 0 0 0 0-6.4128z"  horiz-adv-x="1024" />

    
    <glyph glyph-name="prob" unicode="&#59186;" d="M642.66752 461.36832h0.73728c33.14176 0.4608 69.07904 0.68096 104.25344 0.89088 49.42848 0.29696 96.11264 0.57856 132.74112 1.49504a51.67104 51.67104 0 0 1 47.58016 68.6848 441.89184 441.89184 0 0 1-268.3392 267.81696 51.66592 51.66592 0 0 1-68.56704-48.84992c-0.0256-30.06464-0.06656-87.42912-0.0768-238.25408a51.74784 51.74784 0 0 1 51.67104-51.78368z m14.41792 269.19936a376.12032 376.12032 0 0 0 201.37472-201.216c-32.4096-0.57344-70.8864-0.80384-111.20128-1.0496-30.2592-0.1792-61.09184-0.36864-90.22976-0.71168 0.00512 112.27136 0.04096 169.64096 0.05632 202.97728z m281.00608-326.77888a52.05504 52.05504 0 0 1-37.5296 16.01536h-348.672a4.36736 4.36736 0 0 0-4.42368 4.36736c-0.29696 53.36064-0.11776 126.7456 0.07168 204.44672 0.10752 46.98624 0.22528 95.96416 0.25088 143.96928a51.59936 51.59936 0 0 1-54.19008 51.712 438.784 438.784 0 0 1-416.34816-458.1376c10.2912-223.48288 193.41312-406.59968 416.89088-416.87552 6.84032-0.31744 13.6192-0.47104 20.4032-0.47104a438.784 438.784 0 0 1 437.76 416.768 51.99872 51.99872 0 0 1-14.21312 38.20544z m-794.86976-34.60608a372.736 372.736 0 0 0 338.52928 388.13184c-0.04096-43.008-0.14336-86.5792-0.24064-128.5376-0.18432-77.824-0.36864-151.3472-0.07168-204.97408a69.84704 69.84704 0 0 1 1.92-15.66208L236.1344 141.67552a369.53088 369.53088 0 0 0-92.91264 227.5072zM497.152 15.231999999999971a368.64 368.64 0 0 0-213.20704 80.896l243.25632 262.19008a69.71904 69.71904 0 0 1 24.67328-4.56192h333.42464a372.608 372.608 0 0 0-388.1472-338.52416z"  horiz-adv-x="1024" />

    
    <glyph glyph-name="profile" unicode="&#59187;" d="M717.056 19.099199999999996H257.3264c-47.5728 0-86.2752 41.2176-86.2752 91.8768V657.0192c0 50.6592 38.7024 91.8768 86.2752 91.8768h459.7296c47.5728 0 86.2752-41.2176 86.2752-91.8768a35.928 35.928 0 1 1 71.8512 0C875.1824 747.3312 804.2432 820.8 717.056 820.8H257.3264C170.1392 820.8 99.2 747.3312 99.2 657.0192V110.976C99.2 20.668800000000033 170.1392-52.799999999999955 257.3264-52.799999999999955h459.7296a35.952 35.952 0 0 1 0 71.8992zM488.3888 597.9072a35.9376 35.9376 0 0 1-35.9232 35.952H237.8144a35.952 35.952 0 0 1 0-71.8992H452.48a35.9376 35.9376 0 0 1 35.9088 35.9472z m-250.56-142.9056a35.952 35.952 0 0 1 0-71.8992h164.3424a35.952 35.952 0 0 1 0 71.8992H237.8144z m675.5904-280.416a265.3296 265.3296 0 0 1-151.1616 184.7088 168.8448 168.8448 0 1 1-213.6 0 265.3344 265.3344 0 0 1-151.1616-184.7088 75.6576 75.6576 0 0 1 15.1152-63.84 76.5696 76.5696 0 0 1 59.928-28.728h365.8464a76.5792 76.5792 0 0 1 59.928 28.728 75.648 75.648 0 0 1 15.0912 63.84z m-257.976 412.536a97.0656 97.0656 0 1 0-96.9984-97.0656 97.1376 97.1376 0 0 0 96.9984 97.0656z m186.8832-431.2896a4.9536 4.9536 0 0 0-3.96-1.92H472.52a4.9584 4.9584 0 0 0-3.9648 1.92 3.8112 3.8112 0 0 0-0.8832 3.408 192.2352 192.2352 0 0 0 375.5424 0 3.8112 3.8112 0 0 0-0.888-3.408z"  horiz-adv-x="1024" />

    
    <glyph glyph-name="webcam" unicode="&#59208;" d="M880.64 465.10592C880.64 665.99936 716.416 829.44 514.56 829.44S148.48 665.99936 148.48 465.10592c0-187.392 142.88384-342.10816 325.89824-362.09152v-97.792H326.21568a33.32608 33.32608 0 1 1 0-66.64704h363.2896a33.32608 33.32608 0 1 1 0 66.64704h-148.16256v96.63488C730.73152 115.56863999999996 880.64 273.19295999999997 880.64 465.10592z m-665.1904 0A299.11552 299.11552 0 1 0 514.56 167.42399999999998a298.73664 298.73664 0 0 0-299.1104 297.68192z m464.57856 0a165.46816 165.46816 0 1 1-165.46816-164.67456 165.25824 165.25824 0 0 1 165.46304 164.67456z m-263.96672 0a98.49856 98.49856 0 1 0 98.49856-98.02752 98.3808 98.3808 0 0 0-98.49856 98.02752z"  horiz-adv-x="1024" />

    
    <glyph glyph-name="wallet" unicode="&#59212;" d="M722.4128 565.3872c35.256 48.8064 66.4368 110.1024 35.5872 171.9696a93.1536 93.1536 0 0 1-59.256 50.6688c-33.4464 9.12-68.0208-1.704-90.1728-11.7264A136.6896 136.6896 0 0 1 513.92 805.92c-50.88-4.32-73.6176-16.3968-94.56-31.0848-37.128 10.2384-83.4672 15.5376-119.9472-4.3968a95.04 95.04 0 0 1-46.4352-62.0832C239.36 654.8352 272.4464 604.3199999999999 308.5952 560.2128 240.5456 513.6 81.9824 382.35360000000003 95.1632 180.29280000000006l0.1152-1.3824C110.6912 34.71360000000004 181.0016-38.39999999999998 304.256-38.39999999999998h438.1104c1.7376 0.0768 182.016 1.2672 187.152 231.2832 4.8384 217.3152-150.096 336.216-207.1056 372.504z m20.1936-536.856H304.256c-110.4912 0-134.136 79.1472-142.5264 156.8112-11.328 180.2304 147.48 296.2368 196.4688 327.5184a52.4448 52.4448 0 0 1 11.808 78.0672c-31.152 36.7536-59.04 74.4-52.32 100.8432 3.2592 12.7728 9.048 17.3472 13.728 19.9056 15.984 8.7504 47.232 6.72 83.568-5.4288L431.264 700.8l17.376 12.672c20.2752 14.88 30.4512 22.3152 70.968 25.7712 33.8304 2.88 58.3152-24.912 58.368-24.96l18.984-22.7232 24.7872 16.1568c10.8288 7.0512 40.8384 20.8032 59.52 15.72 4.8816-1.3344 11.2368-4.3536 17.0544-16.0128 13.5264-27.1296 2.0064-61.3056-38.52-114.288a52.4304 52.4304 0 0 1 15.5136-77.3808c32.0976-18.3168 192-119.9088 187.488-321.3744-3.5952-159.936-108.3168-165.72-120.1968-165.8496z m-119.8416 258.8544a33.4656 33.4656 0 0 1 0 66.9312h-33.12l33.4752 46.824a33.4032 33.4032 0 1 1-54.24 38.9952l-51.1632-71.5632L466.568 436.08a33.408 33.408 0 1 1-53.1696-40.4736l31.2672-41.28h-31.4736a33.4656 33.4656 0 0 1 0-66.9312h71.2512v-25.1808H413.192a33.4656 33.4656 0 0 1 0-66.9312h71.2512v-49.0512a33.3744 33.3744 0 1 1 66.7536 0v49.0416h71.568a33.4656 33.4656 0 0 1 0 66.9312h-71.568v25.1808h71.568z"  horiz-adv-x="1024" />

    
    <glyph glyph-name="package" unicode="&#59224;" d="M877.68064 665.28768l-289.82272 148.05504a145.69984 145.69984 0 0 1-127.34976 2.85696L158.24384 678.50752a147.06688 147.06688 0 0 1-85.6576-130.36544L66.56 231.81312000000003a146.5088 146.5088 0 0 1 84.0448-135.168l295.58784-139.02848a146.57024 146.57024 0 0 1 120.27904-1.97632l296.48384 127.71328a146.62656 146.62656 0 0 1 88.43264 131.584L957.44 532.20352a147.20512 147.20512 0 0 1-79.75936 133.08416zM488.09472 755.712a79.488 79.488 0 0 0 69.48352-1.536l289.82784-148.04992a78.81728 78.81728 0 0 0 15.232-10.24l-344.13056-169.55904L168.448 607.09888a78.976 78.976 0 0 0 17.408 10.9056zM178.92352 156.77952000000005a79.95904 79.95904 0 0 0-45.85472 73.76896l6.03136 316.32384c0 0.17408 0 0.34816 0.03072 0.512l345.75872-178.53952v-355.0208a79.62624 79.62624 0 0 0-10.38336 3.92192z m705.9456 59.392A79.99488 79.99488 0 0 0 836.608 144.38400000000001l-285.184-122.88v346.9056L890.88 535.63904c0-0.72192 0.0512-1.44384 0.04096-2.16576z"  horiz-adv-x="1024" />

    
    <glyph glyph-name="toggle" unicode="&#59225;" d="M512 801.6a417.6 417.6 0 1 1 417.6-417.6 418.08 418.08 0 0 1-417.6 417.6z m0-767.8464A350.2464 350.2464 0 1 0 862.2464 384 350.64 350.64 0 0 0 512 33.753600000000006z m191.7984 300.6912H309.7712a35.4864 35.4864 0 0 1-25.488-58.9008l129.9456-136.1088a33.6768 33.6768 0 1 1 48.7152 46.5072l-77.472 81.12h318.3264a33.6816 33.6816 0 0 1 0 67.3824z m-395.16 99.36h394.0272a35.4816 35.4816 0 0 1 25.488 58.896L598.208 628.8a33.6768 33.6768 0 1 1-48.7152-46.512l77.4672-81.144H308.6384a33.6768 33.6768 0 0 1 0-67.3536z"  horiz-adv-x="1024" />

    
    <glyph glyph-name="newon" unicode="&#59231;" d="M743.84 820.8H280.16A147.6432 147.6432 0 0 1 132.8 673.2288v-583.2576A147.6432 147.6432 0 0 1 280.16-57.60000000000002h463.68a147.6432 147.6432 0 0 1 147.36 147.5712V673.2288A147.6432 147.6432 0 0 1 743.84 820.8zM280.16 753.744h463.68a80.5536 80.5536 0 0 0 80.4096-80.5152V622.992h-624.48V673.2288A80.5584 80.5584 0 0 0 280.16 753.744z m544.0704-663.7728a80.0832 80.0832 0 0 0-10.2528-39.2352l-276.3696 143.3376-2.4528 0.8256a70.9296 70.9296 0 0 1-44.0832 0.4368l-2.472-0.7776-281.088-138.8448a79.992 79.992 0 0 0-7.7472 34.2576V555.9408000000001h624.48v-465.9696zM280.16 9.456000000000017a80.4672 80.4672 0 0 0-12.7152 1.104l244.9536 120.9936a1.344 1.344 0 0 1 0.1392 0l235.0416-121.92c-1.2624-0.0624-2.5008-0.192-3.7776-0.192H280.16z m-4.5168 248.64a26.808 26.808 0 0 1 26.7888 26.8224v57.8688l44.3136-68.2272 0.5232-0.768a30.576 30.576 0 0 1 55.6272 17.5776v136.608a26.7888 26.7888 0 1 1-53.5728 0v-58.968L305.024 437.208l-0.5088 0.7488a30.576 30.576 0 0 1-55.6416-17.5584v-135.4656a26.808 26.808 0 0 1 26.7888-26.8224z m214.1568 7.824h48.288a26.8224 26.8224 0 0 1 0 53.64H489.8192a11.2032 11.2032 0 0 0-11.1744 11.1936v1.104h59.3088a26.8224 26.8224 0 0 1 0 53.64H478.64v1.1136a11.1984 11.1984 0 0 0 11.1744 11.1888h47.3568a26.8224 26.8224 0 0 1 0 53.6448h-47.352a64.8672 64.8672 0 0 1-64.752-64.8336v-55.8432a64.8672 64.8672 0 0 1 64.752-64.848z m113.6064 24.8592l0.48-2.0736a30.5712 30.5712 0 0 1 58.032-2.5296l18.648 55.2 18.5376-55.8096 0.3264-0.9264a30.4464 30.4464 0 0 1 28.608-19.9056c0.5664 0 1.1328 0 1.704 0.0528a30.4464 30.4464 0 0 1 27.9744 23.04l23.0976 131.0016a26.7888 26.7888 0 1 1-52.7232 9.3312l-6.864-39.0624-11.472 34.56-0.3216 0.9072a30.3456 30.3456 0 0 1-28.56 19.9248h-0.096a30.3456 30.3456 0 0 1-28.584-19.7424l-13.0272-38.5488-7.9728 40.32a26.7888 26.7888 0 1 1-52.5552-10.4256z"  horiz-adv-x="1024" />

    
    <glyph glyph-name="state" unicode="&#59243;" d="M139.88352 475.84256a33.14176 33.14176 0 0 0-10.63424 1.75616 34.64192 34.64192 0 0 0-21.43232 43.57632C164.7104 696.3712 324.49536 814.08 505.4208 814.08c179.968 0 339.4816-116.89472 396.93824-290.87744a34.65728 34.65728 0 0 0-21.21728-43.68896 33.6128 33.6128 0 0 0-42.79296 21.66272c-48.18432 145.92-181.98016 243.94752-332.928 243.94752-151.75168 0-285.7728-98.71872-333.48608-245.64224a33.85856 33.85856 0 0 0-32.0512-23.63904zM505.4208-40.960000000000036c-185.61024 0-346.624 121.66656-400.67072 302.75584a34.60608 34.60608 0 0 0 22.46144 43.008 33.67424 33.67424 0 0 0 42.14784-22.9376c45.32736-151.8592 180.3776-253.89056 336.06144-253.89056 155.008 0 293.65248 105.93792 337.14688 257.62304a33.68448 33.68448 0 0 0 41.9072 23.40864 34.60096 34.60096 0 0 0 22.92224-42.76736c-51.84512-180.87424-217.16992-307.2-401.97632-307.2z m-44.8256 250.56768a33.55648 33.55648 0 0 0-31.744 22.73792l-67.584 190.52032-48.04608-57.96864a33.47968 33.47968 0 0 0-25.78432-12.2112H59.392a34.4832 34.4832 0 0 0 0 68.95616h212.35712l75.61216 91.22304a33.41312 33.41312 0 0 0 31.744 11.66848 33.97632 33.97632 0 0 0 25.79456-22.20032l64.79872-182.67648 60.60032 91.92448a33.4848 33.4848 0 0 0 31.744 15.02208 33.90464 33.90464 0 0 0 27.7504-21.76512l16.18944-42.46528 34.17088 51.11808a33.5872 33.5872 0 0 0 27.89888 15.04256H954.368a34.4832 34.4832 0 0 0 0-68.95616h-268.4928l-60.24192-90.112a33.47456 33.47456 0 0 0-59.392 6.92736l-16.00512 41.984-61.62944-93.53728a33.57696 33.57696 0 0 0-28.01152-15.232z"  horiz-adv-x="1024" />

    
    <glyph glyph-name="billfold" unicode="&#59245;" d="M939.7856 497.76a33.6912 33.6912 0 0 1-0.5856 6.384l-26.5392 136.032a146.2512 146.2512 0 0 1-63.1584 93.6 147.7344 147.7344 0 0 1-111.2064 21.744L198.8144 647.5776a147.4416 147.4416 0 0 1-116.4912-170.3424c-0.48-4.728-0.7104-9.5184-0.7104-14.3664v-306.0144A147.4992 147.4992 0 0 1 229.0256 9.600000000000023h567.5616A147.4992 147.4992 0 0 1 944 156.85440000000006V462.8688a146.9664 146.9664 0 0 1-4.2144 34.8912zM751.568 689.9088a80.5968 80.5968 0 0 0 60.6672-11.8656 79.68 79.68 0 0 0 34.4256-50.832l5.4528-27.9648a146.7072 146.7072 0 0 1-55.5264 10.8816H352.7936z m45.0192-613.3968H229.0256a80.4768 80.4768 0 0 0-80.4336 80.3424V462.8688A80.4768 80.4768 0 0 0 229.0256 543.216h567.5616a80.4768 80.4768 0 0 0 80.4288-80.3472v-35.9088h-172.4736a117.096 117.096 0 1 1 0-234.192h172.4736v-35.9136a80.4768 80.4768 0 0 0-80.4288-80.3424z m78.7728 283.536v-100.368h-170.8176a50.184 50.184 0 1 0 0 100.368H875.36z m-192.576-50.184a28.4688 28.4688 0 1 1 28.4688 28.44 28.4544 28.4544 0 0 1-28.4832-28.44z"  horiz-adv-x="1024" />

    
    <glyph glyph-name="chitchat" unicode="&#59248;" d="M810.19904 803.84H401.97632a162.94912 162.94912 0 0 1-161.96608-149.02272h-26.2144A162.98496 162.98496 0 0 1 51.2 491.82208v-243.2a162.816 162.816 0 0 1 122.02496-157.87008 7.87968 7.87968 0 0 0 5.79584-7.7824l-0.30208-57.2416a55.808 55.808 0 0 1 82.432-49.664l200.9856 108.544a8.10496 8.10496 0 0 0 3.84512 0.97792h210.59584a162.97984 162.97984 0 0 1 162.60096 162.9952v243.2a162.98496 162.98496 0 0 1-162.60096 162.9952H309.69344a93.57312 93.57312 0 0 0 92.28288 79.73376h408.22272a93.66016 93.66016 0 0 0 93.44-93.66528V437.248a93.88032 93.88032 0 0 0-21.42208-59.67872 34.61632 34.61632 0 1 1 53.2736-44.22144A163.47648 163.47648 0 0 1 972.8 437.248V640.8448A162.98496 162.98496 0 0 1 810.19904 803.84zM770.048 491.82208v-243.2a93.65504 93.65504 0 0 0-93.44-93.66528H465.9968a77.4144 77.4144 0 0 1-36.64896-9.2672l-181.34528-97.97632 0.1792 34.87232A77.09696 77.09696 0 0 1 190.464 157.88031999999998a93.55264 93.55264 0 0 0-70.08256 90.72128v243.2a93.66016 93.66016 0 0 0 93.44 93.66528h462.79168a93.65504 93.65504 0 0 0 93.43488-93.6448z m-433.99168-128.16384a36.38272 36.38272 0 1 1-36.38272-36.49024 36.42368 36.42368 0 0 1 36.38272 36.49024z m141.75744 0a36.38272 36.38272 0 1 1-36.3776-36.46976 36.42368 36.42368 0 0 1 36.3776 36.46976z m141.76256 0a36.38272 36.38272 0 1 1-36.38272-36.46976 36.4288 36.4288 0 0 1 36.38272 36.46976z"  horiz-adv-x="1024" />

    
    <glyph glyph-name="accraditation" unicode="&#59249;" d="M826.6736 64.41600000000005H198.9296a69.4416 69.4416 0 0 0-69.3264 69.3888v74.328a142.3104 142.3104 0 0 0 142.08 142.2144h133.08c-2.5584 35.016-25.1664 76.32-47.136 116.4912C332.2784 513.168 306.08 561.0768 306.08 608.0016a207.8064 207.8064 0 1 0 415.6128 0c0-58.7328-28.0848-112.4016-52.8576-159.7488-18.0384-34.464-35.304-67.464-40.0032-97.92h125.088a142.3104 142.3104 0 0 0 142.08-142.2v-74.328a69.4368 69.4368 0 0 0-69.3264-69.3888zM271.688 284.39520000000005a76.32 76.32 0 0 1-76.1904-76.2624v-74.328a3.4368 3.4368 0 0 1 3.432-3.432h627.744a3.4368 3.4368 0 0 1 3.432 3.432v74.328a76.32 76.32 0 0 1-76.1856 76.2624h-184.9584l-5.9136 30.072c-8.0496 58.416 20.136 112.2912 47.4 164.3904 23.3136 44.5584 45.336 86.6352 45.336 129.144a141.912 141.912 0 1 1-283.824 0c0-30.0528 22.08-70.4304 43.464-109.4832 30.72-56.16 62.52-114.2688 54.0768-174.4896l-6.1104-39.6384H271.688zM861.9824-52.799999999999955H160.9472a32.9808 32.9808 0 0 0 0 65.9568h701.0352a32.9808 32.9808 0 0 0 0-65.9568z"  horiz-adv-x="1024" />

    
    <glyph glyph-name="countdown" unicode="&#59251;" d="M892.76 40.06560000000002h-45.3456v65.112a100.8 100.8 0 0 1-26.9424 68.5152l-169.5888 183.7392a36.3504 36.3504 0 0 0-0.3216 49.7856L802.4 584.7504a100.9008 100.9008 0 0 1 25.8 67.2528V727.9295999999999h45.3456a32.0352 32.0352 0 1 1 0 64.0656H140.864a32.0352 32.0352 0 1 1 0-64.0656h50.064v-75.9264a100.9056 100.9056 0 0 1 25.8-67.2528L368 407.8368l0.5472-0.6192a36.3456 36.3456 0 0 0-0.3216-49.7856l-169.584-183.7392a100.824 100.824 0 0 1-26.9424-68.5152v-65.112H121.64a32.0352 32.0352 0 1 1 0-64.0656h771.12a32.0352 32.0352 0 1 1 0 64.0656zM235.7888 105.17759999999998a36.9312 36.9312 0 0 0 9.96 25.0704l169.584 183.7392A100.5408 100.5408 0 0 1 416.48 449.76L265.1936 626.664l-0.5424 0.6144a36.96 36.96 0 0 0-9.6384 24.72V727.9295999999999h509.0928v-75.9264a36.96 36.96 0 0 0-9.6384-24.72L602.6432 449.76a100.5456 100.5456 0 0 1 1.1424-135.7632l169.5888-183.7392a36.96 36.96 0 0 0 9.96-25.0704v-65.112H235.7888v65.1024z m440.2176 89.0448c-155.52 84.3072-328.9296 2.6736-336.2304-0.8496a32.0352 32.0352 0 0 1 27.744-57.7488c1.5072 0.7152 151.6128 70.7472 277.92 2.2752a32.0352 32.0352 0 1 1 30.5616 56.3232z m0 427.008a32.0352 32.0352 0 1 1-30.5664 56.3232c-126.3312-68.472-276.4368 1.5696-277.92 2.28A32.0352 32.0352 0 0 1 339.7712 622.0799999999999a451.8768 451.8768 0 0 1 179.472-38.88 325.92 325.92 0 0 1 156.7584 38.0304z"  horiz-adv-x="1024" />

    
    <glyph glyph-name="ctbox" unicode="&#59257;" d="M953.6 298.3008a227.3328 227.3328 0 0 1-262.8672 223.5072 237.4896 237.4896 0 0 1-418.5264 72.96 233.5632 233.5632 0 0 1-45.8976-143.7984A190.6848 190.6848 0 0 1 257.1776 72h494.7888a29.9904 29.9904 0 0 1 13.8288 3.4848A226.9104 226.9104 0 0 1 953.6 298.3008z m-227.28-166.2192H257.1776a130.6752 130.6752 0 1 0 0 261.3456 29.9712 29.9712 0 0 1 8.16 1.2576 29.9664 29.9664 0 0 1 23.2944 33.7488 176.0736 176.0736 0 0 0 147.8832 200.64A176.6832 176.6832 0 0 0 632.96 504.5376a226.5264 226.5264 0 0 1-133.92-206.2368 30.168 30.168 0 0 1 60.336 0 166.9392 166.9392 0 1 0 166.944-166.2192z"  horiz-adv-x="1024" />

    
    <glyph glyph-name="disperse" unicode="&#59264;" d="M851.7872 248.20799999999997V296.64c0 45.744-43.3104 82.9584-96.5472 82.9584h-212.2176v37.0848a183.192 183.192 0 1 1-59.0928 0v-37.0656H271.7168c-53.2368 0-96.5472-37.2144-96.5472-82.9584v-47.6064a135.9072 135.9072 0 1 1 59.0928 2.88V296.64c0 11.1312 16.0176 23.5824 37.44 23.5824h212.2272v-69.6a135.9216 135.9216 0 1 1 59.0928 0v69.6h212.2176c21.4368 0 37.44-12.4512 37.44-23.5824v-44.2368a136.0032 136.0032 0 1 1 59.1072-4.1952zM389.3792 598.3296a124.0992 124.0992 0 1 0 124.0992-124.6944 124.536 124.536 0 0 0-124.0992 124.6944z m-101.4432-480.96a76.8 76.8 0 1 0-76.8 77.1888 77.0976 77.0976 0 0 0 76.8-77.1888z m302.3616 0a76.8 76.8 0 1 0-76.8 77.1888 77.0928 77.0928 0 0 0 76.8-77.1888z m222.5856-77.1936a77.1936 77.1936 0 1 0 76.8 77.1936 77.0928 77.0928 0 0 0-76.8-77.1936z"  horiz-adv-x="1024" />

    
    <glyph glyph-name="signin" unicode="&#59270;" d="M583.952 628.3199999999999H449.8112a33.0288 33.0288 0 1 0 0 66.0576h134.1408a33.0288 33.0288 0 1 0 0-66.0576zM803.0192 9.600000000000023H225.7808A145.7424 145.7424 0 0 0 80 154.97760000000005V549.0144a145.7424 145.7424 0 0 0 145.7808 145.3776h58.4352a33.0288 33.0288 0 1 0 0-66.0576H225.7808A79.5216 79.5216 0 0 1 146.24 549.0144v-394.0368a79.5216 79.5216 0 0 1 79.5408-79.32h577.2384a79.5168 79.5168 0 0 1 79.5408 79.32V549.0144A79.5168 79.5168 0 0 1 803.0192 628.3199999999999H746.24a33.0288 33.0288 0 1 0 0 66.0576h56.7792A145.7424 145.7424 0 0 0 948.8 549.0144v-394.0368A145.7424 145.7424 0 0 0 803.0192 9.600000000000023zM365.36 574.9392a33.0768 33.0768 0 0 0-33.12 33.0288V730.1712a33.12 33.12 0 0 0 66.24 0V607.9680000000001a33.0768 33.0768 0 0 0-33.12-33.0288z m300.5664 0a33.0768 33.0768 0 0 0-33.12 33.0288V730.1712a33.12 33.12 0 0 0 66.24 0V607.9680000000001a33.0768 33.0768 0 0 0-33.12-33.0288z m-188.3712-358.2a70.56 70.56 0 0 0-47.52 18.1632l-100.2096 90.72a33.0672 33.0672 0 1 0 44.5248 48.9072l100.2144-90.72a4.464 4.464 0 0 1 6.0144 0.0432l198.2832 185.28A33.072 33.072 0 1 0 724.16 420.96l-198.2832-185.28a70.6368 70.6368 0 0 0-48.3216-18.9408z"  horiz-adv-x="1024" />

    
    <glyph glyph-name="sign" unicode="&#59271;" d="M240.59392 410.7008c0.16384-0.65024 0.19456-1.3056 0.39424-1.95584l98.21696-317.78816a35.92192 35.92192 0 0 1 68.64384 21.21216l-77.824 251.74016c71.48032 28.672 126.07488 6.89664 193.29536-20.12672q9.64096-3.88608 19.34848-7.72608a190.68416 190.68416 0 0 1 70.1184-12.32384c96.6144 0 193.98144 57.64096 195.18464 58.368 42.69056 26.16832 43.83744 87.95136 43.63776 99.47136v271.872c0 46.01856-26.7008 63.26272-38.19008 68.54144-27.93984 12.86656-59.47392 2.81088-77.17376-12.06784-43.68896-35.4304-82.46784-54.5536-112.15872-55.296-28.34432-0.57344-42.14784 5.80608-96.6144 33.47456-12.46208 6.32832-26.624 13.53216-43.1616 21.6832l-0.7168 0.34304c-103.53152 48.25088-226.87744-4.95104-291.20512-40.96a76.288 76.288 0 0 1-35.41504-88.18688c18.95936-62.39744 59.7248-196.17792 83.61984-270.27456zM227.5328 706.51392c42.0608 23.552 148.15232 74.38848 225.39776 38.6816C468.992 737.28 482.816 730.25024 494.9504 724.0857599999999c55.61856-28.25728 83.70176-42.496 130.95424-41.2416 45.88032 1.14176 97.6384 24.66304 153.88672 69.9136v-271.62112c0.128-16.22016-5.15072-34.6624-9.344-37.78048-31.7696-19.456-138.5216-65.20832-201.44128-40.448q-9.46176 3.72224-18.85696 7.53664c-46.36672 18.6368-96.41984 38.76352-153.6 38.76352a246.51264 246.51264 0 0 1-87.6544-16.32256c-23.46496 72.82688-64.23552 206.64832-83.13856 268.9536a4.01408 4.01408 0 0 0 1.77664 4.67456zM512 208.5376a35.9168 35.9168 0 1 1 0-71.8336c207.77472 0 341.61664-36.62336 370.20672-60.5952-28.59008-23.96672-162.432-60.5952-370.20672-60.5952-207.1296 0-340.77184 36.39296-369.93024 60.36992 9.87648 7.59808 35.40992 20.992 88.576 33.51552a35.91168 35.91168 0 1 1-16.47616 69.90848C114.84672 155.904 66.56 122.14783999999997 66.56 76.10879999999997 66.56-52.597759999999994 466.432-56.32000000000005 512-56.32000000000005s445.44 3.72224 445.44 132.4288-399.8464 132.4288-445.44 132.4288z"  horiz-adv-x="1024" />

    
    <glyph glyph-name="heartbeat" unicode="&#59272;" d="M124.30848 460.0576a33.91488 33.91488 0 0 0-33.28 27.59168A251.9808 251.9808 0 0 0 157.4912 710.26176a239.46752 239.46752 0 0 0 344.47872 0L514.56 697.344l12.57472 12.90752a239.47264 239.47264 0 0 0 344.48896 0A252.5952 252.5952 0 0 0 939.136 493.568a33.90976 33.90976 0 0 0-66.92352 10.96704 184.78592 184.78592 0 0 1-49.18784 158.50496 171.5712 171.5712 0 0 1-247.296 0l-23.28064-23.88992a52.56192 52.56192 0 0 0-37.888-16.02048 52.49024 52.49024 0 0 0-37.888 16.0256L453.36064 663.04a171.55584 171.55584 0 0 1-247.25504 0A184.27392 184.27392 0 0 1 157.696 500.18304a33.93024 33.93024 0 0 0-33.38752-40.12544zM514.56-10.240000000000009a71.40864 71.40864 0 0 0-51.4816 21.77536l-251.87328 258.16576a33.88416 33.88416 0 0 0 48.59392 47.23712l251.904-258.16576a3.85024 3.85024 0 0 1 5.76512 0l257.536 263.98208a33.88416 33.88416 0 0 0 48.5888-47.23712l-257.536-263.98208A71.3984 71.3984 0 0 0 514.56-10.240000000000009z m-38.12864 237.25056a52.93568 52.93568 0 0 0-48.28672 31.27808l-48.49664 106.81344H64.63488a33.85344 33.85344 0 1 0 0 67.70688h324.608a53.248 53.248 0 0 0 48.32256-31.26272l35.59936-78.40256 57.47712 203.87328a52.992 52.992 0 0 0 99.46112 0.70656l1.16736-3.072 15.49312-89.53856h317.71648a33.84832 33.84832 0 1 0 0-67.70176h-330.53696a53.4528 53.4528 0 0 0-49.59744 34.35008l-1.16736 3.072-6.30272 36.4544-50.53952-179.23584a52.992 52.992 0 0 0-47.87712-35.00032 44.86656 44.86656 0 0 0-2.0224-0.04096z m-87.17824 138.09152z"  horiz-adv-x="1024" />

    
    <glyph glyph-name="trend" unicode="&#59273;" d="M797.7968 101.64959999999996H231.0032A146.0688 146.0688 0 0 0 84.8 247.24800000000005V646.4016A146.0688 146.0688 0 0 0 231.0032 792h566.7936A146.0688 146.0688 0 0 0 944 646.4016v-399.1536a146.0688 146.0688 0 0 0-146.2032-145.5984zM231.0032 725.8416a79.68 79.68 0 0 1-79.7712-79.44v-399.1536a79.68 79.68 0 0 1 79.7712-79.44h566.7936a79.68 79.68 0 0 1 79.7712 79.44V646.4016a79.68 79.68 0 0 1-79.7712 79.44H231.0032z m13.1232-432.8016a33.0816 33.0816 0 0 0-24.144 55.7856l146.3472 154.368a70.6464 70.6464 0 0 0 84.7824 13.44l159.4656-86.4a3.9072 3.9072 0 0 1 4.8336 0.864l144.216 164.6832a33.1584 33.1584 0 0 0 50.0736-43.4832l-144.2208-164.6688a70.1376 70.1376 0 0 0-86.6544-15.4944l-159.4608 86.4a3.9264 3.9264 0 0 1-4.728-0.7536L268.2896 303.408a33.2016 33.2016 0 0 0-24.1584-10.368zM817.76-24H211.04a33.0816 33.0816 0 1 0 0 66.1584h606.72a33.0816 33.0816 0 1 0 0-66.1584z"  horiz-adv-x="1024" />

    
    <glyph glyph-name="relevance" unicode="&#59288;" d="M895.13984 307.00544c0.67072 9.25184 1.024 18.54976 1.024 27.81696A380.60032 380.60032 0 0 1 650.49088 691.2a134.90176 134.90176 0 0 1-268.72832 0 380.59008 380.59008 0 0 1-245.69856-356.38272c0-8.77568 0.39936-17.57184 0.99328-26.32192a135.22944 135.22944 0 0 1 59.3664-256.60928 133.89824 133.89824 0 0 1 53.47328 11.12064 380.81024 380.81024 0 0 1 266.24-109.09184 376.13056 376.13056 0 0 1 265.216 108.20096A134.8352 134.8352 0 0 1 967.68 187.18208000000004a135.37792 135.37792 0 0 1-72.54016 119.82336zM516.1216 747.52a68.75136 68.75136 0 1 0-68.608-68.75648A68.7616 68.7616 0 0 0 516.1216 747.52zM127.83104 187.18208000000004a68.608 68.608 0 1 0 68.608-68.75136 68.75136 68.75136 0 0 0-68.608 68.75136z m175.104-82.80576A134.99392 134.99392 0 0 1 202.752 322.1504a317.30688 317.30688 0 0 0-0.29184 12.672 314.17856 314.17856 0 0 0 190.3616 289.15712 134.70208 134.70208 0 0 1 246.61504 0 314.16832 314.16832 0 0 0 190.35648-289.152c0-4.1728-0.24064-8.3456-0.40448-12.5184a135.10656 135.10656 0 0 1-101.888-219.67872A310.272 310.272 0 0 0 516.1216 20.480000000000018a314.25024 314.25024 0 0 0-213.17632 83.89632z m529.7408 14.0544a68.75136 68.75136 0 1 0 68.608 68.75136 68.74624 68.74624 0 0 0-68.59776-68.75136z"  horiz-adv-x="1024" />

    
    <glyph glyph-name="desktop" unicode="&#59289;" d="M813.47072 82.03776000000005H215.64928A154.47552 154.47552 0 0 0 61.44 236.43136000000004V659.6864A154.47552 154.47552 0 0 0 215.64928 814.08h597.82144A154.47552 154.47552 0 0 0 967.68 659.6864v-423.25504a154.47552 154.47552 0 0 0-154.20928-154.3936zM215.64928 743.936a84.28544 84.28544 0 0 1-84.13696-84.2496v-423.25504a84.28544 84.28544 0 0 1 84.14208-84.23936h597.81632a84.28544 84.28544 0 0 1 84.13696 84.23936V659.6864A84.28544 84.28544 0 0 1 813.47072 743.936H215.64928zM834.56-51.200000000000045H194.56a35.07712 35.07712 0 0 0 0 70.144h640a35.07712 35.07712 0 0 0 0-70.144z"  horiz-adv-x="1024" />

    
    <glyph glyph-name="bank" unicode="&#59290;" d="M926.49472 577.5360000000001l-375.7568 230.656a73.728 73.728 0 0 1-77.47584 0L97.5104 577.5360000000001A54.09792 54.09792 0 0 1 125.952 477.34272h772.096a54.10304 54.10304 0 0 1 28.44672 100.19328zM178.93888 546.42176l330.63424 202.9568a4.608 4.608 0 0 0 4.85376 0l330.63424-202.9568H178.93888zM267.264 123.29471999999998v237.184a34.63168 34.63168 0 0 1-69.26336 0v-237.184a34.63168 34.63168 0 0 1 69.26336 0z m283.9808 0v237.184a34.63168 34.63168 0 0 1-69.26336 0v-237.184a34.63168 34.63168 0 0 1 69.26848 0z m283.98592 0v237.184a34.63168 34.63168 0 0 1-69.26336 0v-237.184a34.63168 34.63168 0 0 1 69.26848 0z m63.488-110.53056H131.072a34.54464 34.54464 0 1 1 0-69.08416h767.65184a34.54464 34.54464 0 1 1 0 69.08416z"  horiz-adv-x="1024" />

    
    <glyph glyph-name="data" unicode="&#59291;" d="M261.344 118.77120000000002h-87.84a69.312 69.312 0 0 0-69.2304 69.24V486.1824a69.312 69.312 0 0 0 69.2256 69.24h87.84A69.312 69.312 0 0 0 330.56 486.1824v-298.1712a69.312 69.312 0 0 0-69.216-69.24z m-87.84 371.7552a4.344 4.344 0 0 1-4.32-4.344v-298.1712a4.344 4.344 0 0 1 4.32-4.344h87.84a4.344 4.344 0 0 1 4.32 4.344V486.1824a4.344 4.344 0 0 1-4.32 4.344h-87.84z m674.016-371.7552h-87.84a69.3168 69.3168 0 0 0-69.24 69.24v166.5936A69.3168 69.3168 0 0 0 759.68 423.84h87.84a69.3168 69.3168 0 0 0 69.2352-69.2352v-166.5936a69.3168 69.3168 0 0 0-69.2352-69.24z m-87.84 240.1776a4.3536 4.3536 0 0 1-4.3488-4.344v-166.5936a4.3536 4.3536 0 0 1 4.3488-4.344h87.84a4.3488 4.3488 0 0 1 4.344 4.344v166.5936a4.3488 4.3488 0 0 1-4.344 4.344h-87.84z m-205.248-240.1776h-87.84a69.312 69.312 0 0 0-69.2304 69.24V717.96A69.312 69.312 0 0 0 466.592 787.2h87.84a69.312 69.312 0 0 0 69.2352-69.24v-529.9488a69.312 69.312 0 0 0-69.2352-69.24zM466.592 722.304a4.344 4.344 0 0 1-4.32-4.344v-529.9488a4.344 4.344 0 0 1 4.32-4.344h87.84a4.3488 4.3488 0 0 1 4.344 4.344V717.96a4.3488 4.3488 0 0 1-4.344 4.344h-87.84zM906.752-24H117.248a32.448 32.448 0 0 0 0 64.896h789.504a32.448 32.448 0 0 0 0-64.896z"  horiz-adv-x="1024" />

    
    <glyph glyph-name="moon" unicode="&#59128;" d="M546.816-51.200000000000045q-5.27872 0-10.56768 0.11264a467.2768 467.2768 0 0 0-336.98304 152.66816c-163.13344 177.74592-163.2512 456.38656-0.256 634.368a474.34752 474.34752 0 0 0 79.19104 69.22752 76.45184 76.45184 0 0 0 85.5808 1.792A78.336 78.336 0 0 0 399.36 727.90016a396.86656 396.86656 0 0 1 456.41728-455.95136 78.5664 78.5664 0 0 0 79.15008-35.57376 76.288 76.288 0 0 0-1.81248-85.504 472.33024 472.33024 0 0 0-53.888-64.3584A466.60608 466.60608 0 0 0 546.816-51.200000000000045zM322.21696 745.7792a3.65056 3.65056 0 0 1-2.1504-0.82944 400.70144 400.70144 0 0 1-66.90304-58.50112c-137.54368-150.19008-137.45664-385.32608 0.20992-535.31648a397.50656 397.50656 0 0 1 573.98272-12.8 398.66368 398.66368 0 0 1 45.4912 54.33856 3.52256 3.52256 0 0 1 0.03584 4.5568 4.68992 4.68992 0 0 1-5.1968 2.36032 470.23616 470.23616 0 0 0-540.7232 540.16 4.75136 4.75136 0 0 1-2.3552 5.21216 4.48 4.48 0 0 1-2.39104 0.8192z"  horiz-adv-x="1024" />

    
    <glyph glyph-name="sun" unicode="&#59130;" d="M512.5632 124.41600000000005a258.43712 258.43712 0 1 0 258.43712 258.43712A258.72896 258.72896 0 0 0 512.5632 124.41600000000005z m0 448.86016a190.42816 190.42816 0 1 1 190.4128-190.40256 190.63808 190.63808 0 0 1-190.4128 190.42304z m1.13664 128.67584a34.00192 34.00192 0 0 0-34.00192 34.00704V800.55296a34.00704 34.00704 0 0 0 68.00896 0V735.9488a34.00704 34.00704 0 0 0-34.00704-33.9968z m0-768.512a34.00192 34.00192 0 0 0-34.00192 34.00192V32.051199999999994a34.00704 34.00704 0 1 0 68.00896 0v-64.60928a34.00192 34.00192 0 0 0-34.00704-34.00192z m414.85824 416.55296H863.9488a34.00704 34.00704 0 1 0 0 68.00896h64.60928a34.00704 34.00704 0 0 0 0-68.00896z m-768.512 0H95.44704a34.00704 34.00704 0 0 0 0 68.00896H160.0512a34.00704 34.00704 0 0 0 0-68.00896z m600.81664 248.86784a34.00192 34.00192 0 0 0-24.064 58.04544l45.69088 45.68576a34.00192 34.00192 0 0 0 48.08192-48.08704L784.896 608.8192a33.88416 33.88416 0 0 0-24.03328-9.9584zM217.45152 55.44960000000003a34.00704 34.00704 0 0 0-24.064 58.05568l45.68576 45.68064a34.00704 34.00704 0 1 0 48.10752-48.08192l-45.68576-45.68064a33.91488 33.91488 0 0 0-24.04352-9.97376z m589.10208 0a33.90976 33.90976 0 0 0-24.0384 9.9584l-45.696 45.696a34.00704 34.00704 0 1 0 48.08704 48.09728l45.68576-45.68064a34.00704 34.00704 0 0 0-24.04352-58.07104zM263.13728 598.8607999999999a33.88416 33.88416 0 0 0-24.064 9.96352l-45.68576 45.68576a34.00192 34.00192 0 1 0 48.08704 48.08192L287.1808 656.896a34.00192 34.00192 0 0 0-24.04352-58.0352z"  horiz-adv-x="1024" />

    
    <glyph glyph-name="query" unicode="&#59131;" d="M660.32 38.879999999999995H238.5488A81.36 81.36 0 0 0 157.28 120.12959999999998V647.8704A81.3552 81.3552 0 0 0 238.5488 729.12h530.064a81.36 81.36 0 0 0 81.2688-81.2592V377.28a33.84 33.84 0 0 1 67.68 0V647.8704A149.112 149.112 0 0 1 768.6128 796.8H238.5488A149.112 149.112 0 0 1 89.6 647.8704v-527.7408A149.112 149.112 0 0 1 238.5488-28.799999999999955H660.32a33.8352 33.8352 0 1 1 0 67.68z m56.4528 516.5568a33.8352 33.8352 0 0 1-33.84 33.8352H249.776a33.8352 33.8352 0 1 1 0-67.68h433.1568a33.8352 33.8352 0 0 1 33.84 33.8448z m-251.52-143.2416a33.8352 33.8352 0 0 1-33.84 33.8352H249.776a33.8352 33.8352 0 1 1 0-67.68h181.6128a33.8352 33.8352 0 0 1 33.84 33.84z m459.2304-371.8752l-106.9344 106.9152a185.976 185.976 0 1 1-48.336-47.3664l107.4144-107.3952a33.8352 33.8352 0 1 1 47.856 47.8464z m-377.4768 213.9696a118.4448 118.4448 0 1 0 118.4448-118.4496 118.56 118.56 0 0 0-118.4448 118.4544z m-297.2352 48.48a33.8352 33.8352 0 1 1 0-67.68h89.1168a33.8352 33.8352 0 1 1 0 67.68H249.776z"  horiz-adv-x="1024" />

    
    <glyph glyph-name="save" unicode="&#59132;" d="M792.97024 824.3199999999999H225.90976A159.744 159.744 0 0 1 66.56 664.53504v-566.19008A159.744 159.744 0 0 1 225.90976-61.440000000000055h567.06048A159.744 159.744 0 0 1 952.32 98.34496000000001V664.53504A159.744 159.744 0 0 1 792.97024 824.3199999999999z m-479.0272-72.6016h390.9888v-170.68544c0-22.65088-20.5824-41.08288-45.89056-41.08288H359.83872c-25.30816 0-45.89568 18.432-45.89568 41.08288V751.7184z m565.96992-653.37344a87.16288 87.16288 0 0 0-86.94272-87.18336H225.90976a87.16288 87.16288 0 0 0-86.94272 87.18336V664.53504A87.16288 87.16288 0 0 0 225.90976 751.7184h15.62624v-170.68544c0-62.68416 53.0688-113.664 118.30272-113.664h299.20256c65.2288 0 118.2976 51.00032 118.2976 113.664V751.7184h15.63136a87.16288 87.16288 0 0 0 86.94272-87.18336v-566.19008zM623.67744 576.256a36.2496 36.2496 0 0 1 36.20352 36.3008V682.6496a36.20352 36.20352 0 1 1-72.40192 0v-70.0928a36.2496 36.2496 0 0 1 36.1984-36.3008z"  horiz-adv-x="1024" />

    
    <glyph glyph-name="trip" unicode="&#59133;" d="M823.04 619.2691199999999h-60.928v39.7568A144.98816 144.98816 0 0 1 617.28768 803.84h-208.384a144.99328 144.99328 0 0 1-144.8448-144.81408v-39.7568H200.96A149.91872 149.91872 0 0 1 51.2 469.53472v-350.52544A149.9136 149.9136 0 0 1 200.96-30.720000000000027h622.08A149.9136 149.9136 0 0 1 972.8 119.00927999999999V469.53472a149.9136 149.9136 0 0 1-149.76 149.7344z m-490.94656 39.7568a76.87168 76.87168 0 0 0 76.8 76.8h208.384a76.87168 76.87168 0 0 0 76.8-76.8v-39.7568h-361.984v39.7568zM200.96 551.23456h622.08a81.79712 81.79712 0 0 0 81.71008-81.69984v-54.38464H119.24992V469.53472A81.79712 81.79712 0 0 0 200.96 551.23456z m622.08-513.92H200.96a81.79712 81.79712 0 0 0-81.71008 81.69472V347.13599999999997h785.50016v-228.10624a81.79712 81.79712 0 0 0-81.71008-81.7152z"  horiz-adv-x="1024" />

    
    <glyph glyph-name="weather" unicode="&#59134;" d="M786.048 540.97408a193.63328 193.63328 0 0 1-270.64832 3.00032 222.75584 222.75584 0 0 1-332.89216-190.976A162.67776 162.67776 0 0 1 214.06208 30.720000000000027h413.184a31.97952 31.97952 0 0 1 12.9536 2.7648 190.52544 190.52544 0 0 1 151.49568 239.85664 193.4848 193.4848 0 0 1-5.64736 267.63264z m-45.37344-45.33248a129.3312 129.3312 0 0 0 18.97984-158.50496 190.83776 190.83776 0 0 1-140.19072 74.70592 220.07296 220.07296 0 0 1-52.736 92.04736 129.5104 129.5104 0 0 0 173.94688-8.24832z m-132.70528-400.80384H214.06208a98.58048 98.58048 0 1 0 0 197.16096 31.77472 31.77472 0 0 1 10.86464 2.01728 31.96416 31.96416 0 0 1 23.2448 35.08736 158.58688 158.58688 0 0 0 314.2656 42.84928 31.83616 31.83616 0 0 1 46.75072-23.9104 126.60224 126.60224 0 0 0-1.21856-253.20448zM540.28288 632.3199999999999a32.08192 32.08192 0 0 1 53.53984 35.328l-21.91872 33.152a32.08192 32.08192 0 0 1-53.53472-35.36384z m156.24704 2.6112a32.0768 32.0768 0 0 1 37.85728 25.0112l7.94112 38.912a32.09216 32.09216 0 0 1-62.88896 12.8l-7.94112-38.912a32.06144 32.06144 0 0 1 25.03168-37.82656z m203.264 35.76832a32.13312 32.13312 0 0 1-45.3632 1.29024l-28.9024-27.27424a32.07168 32.07168 0 0 1 44.07296-46.592l28.9024 27.27424a32.03584 32.03584 0 0 1 1.29024 45.28128z m10.78784-209.1008a32.256 32.256 0 0 1 7.46496 0.87552l38.67136 9.216a32.06144 32.06144 0 1 1-14.87872 62.32576l-38.67136-9.216a32.06144 32.06144 0 0 1 7.41376-63.22176z m50.43712-95.68256l-37.74464 12.46208a32.05632 32.05632 0 1 1-20.13184-60.87168l37.74464-12.46208a32.05632 32.05632 0 1 1 20.13696 60.8512z"  horiz-adv-x="1024" />

    
    <glyph glyph-name="manage" unicode="&#59136;" d="M514.3568 359.52a65.328 65.328 0 0 0-26.0256 5.3856L143.624 514.56a65.28 65.28 0 0 0 0.216 119.9136l345.216 157.2144a65.7024 65.7024 0 0 0 50.9424-0.1296l0.84-0.3744 339.4704-156.8448a65.28 65.28 0 0 0 0.2448-119.6352l-339.84-149.6352a65.352 65.352 0 0 0-26.3568-5.5488z m-1.6224 61.5312a4.1232 4.1232 0 0 1 3.2832 0l339.84 149.6352a4.0992 4.0992 0 0 1-0.0384 7.5216l-0.8496 0.3744-339.2064 156.72a4.1424 4.1424 0 0 1-2.7648 0L168.0752 578.2416000000001a4.0992 4.0992 0 0 1-0.0432-7.536z m1.8336-252.24a68.4096 68.4096 0 0 0-27.2304 5.64l-374.4912 162.5808a30.6096 30.6096 0 1 0 24.408 56.16l374.4864-162.5664a7.1472 7.1472 0 0 1 5.6976 0l369.192 162.5664a30.6096 30.6096 0 1 0 24.696-56.016l-369.192-162.5712a68.3664 68.3664 0 0 0-27.5664-5.7792z m0-192.8256a68.3232 68.3232 0 0 0-27.2304 5.64l-374.4912 162.5808a30.6096 30.6096 0 1 0 24.408 56.16l374.4864-162.5616a7.1472 7.1472 0 0 1 5.6976 0l369.192 162.5664a30.6048 30.6048 0 1 0 24.696-56.0112L542.1344-18.24000000000001a68.4432 68.4432 0 0 0-27.5664-5.76z"  horiz-adv-x="1024" />

    
    <glyph glyph-name="lang" unicode="&#59137;" d="M778.4816 801.6H240.7184A151.0608 151.0608 0 0 1 89.6 650.9376v-533.8752A151.0608 151.0608 0 0 1 240.7184-33.60000000000002h537.7632A151.0656 151.0656 0 0 1 929.6 117.06240000000003V650.9376A151.0656 151.0656 0 0 1 778.4816 801.6zM860.96 117.06240000000003a82.4256 82.4256 0 0 0-82.4544-82.2048H240.7184a82.4208 82.4208 0 0 0-82.4496 82.2048V650.9376a82.4208 82.4208 0 0 0 82.4496 82.2048h537.7632A82.4208 82.4208 0 0 0 860.96 650.9376v-533.8752zM441.0128 496.9584a34.2288 34.2288 0 1 1 0 68.4576h-155.52A53.76 53.76 0 0 1 231.68 511.7808v-255.5664a53.76 53.76 0 0 1 53.7984-53.6304h155.52a34.2288 34.2288 0 1 1 0 68.4576h-140.64v78.72h140.64a34.2288 34.2288 0 1 1 0 68.4576h-140.64v78.72h140.64z m321.0384 65.0352a34.2816 34.2816 0 0 1-34.3344-34.2288v-181.8528l-113.76 195.8976-0.384 0.6432a42.1392 42.1392 0 0 1-78.096-21.8352v-280.3824a34.3344 34.3344 0 0 1 68.64 0V422.0928l113.8032-195.9024 0.3744-0.6288a41.6928 41.6928 0 0 1 35.7456-20.2176 43.3008 43.3008 0 0 1 11.6016 1.5984 41.6304 41.6304 0 0 1 30.7536 40.4352V527.7647999999999a34.2816 34.2816 0 0 1-34.344 34.2288z"  horiz-adv-x="1024" />

    
    <glyph glyph-name="blockchain" unicode="&#59138;" d="M794.2784 580.3199999999999h-95.4576V647.1024A140.2704 140.2704 0 0 1 558.6992 787.2H234.5264A140.2704 140.2704 0 0 1 94.4 647.1024v-324.12A140.2656 140.2656 0 0 1 234.5264 182.88h95.4528v-66.792A140.2704 140.2704 0 0 1 470.1008-24h324.1776A140.2704 140.2704 0 0 1 934.4 116.09760000000006V440.2176A140.2704 140.2704 0 0 1 794.2784 580.3199999999999z m76.4496-464.2128a76.5312 76.5312 0 0 0-76.4496-76.44H470.1008a76.536 76.536 0 0 0-76.4544 76.44V182.88h165.0528a140.2656 140.2656 0 0 1 140.1216 140.0928v92.64a31.8336 31.8336 0 0 1-63.6672 0v-92.64a76.5312 76.5312 0 0 0-76.4544-76.4352H234.5264a76.5312 76.5312 0 0 0-76.4544 76.4352V647.1024a76.5312 76.5312 0 0 0 76.4544 76.44h324.1728a76.5312 76.5312 0 0 0 76.4544-76.44V580.3199999999999H470.1008a140.2704 140.2704 0 0 1-140.1216-140.1024v-91.4352a31.8336 31.8336 0 0 1 63.6672 0V440.2176a76.5312 76.5312 0 0 0 76.4544 76.4352h324.1776a76.5312 76.5312 0 0 0 76.4496-76.44v-324.12z"  horiz-adv-x="1024" />

    
    <glyph glyph-name="reset" unicode="&#59139;" d="M806.24128 508.9024h-31.37024V591.23712C774.87104 728.22784 656.50688 839.68 511.01696 839.68S247.168 728.22784 247.168 591.23712v-82.33472h-24.28928A110.28992 110.28992 0 0 1 112.64 398.81216V43.51999999999998A110.28992 110.28992 0 0 1 222.87872-66.55999999999995h583.36256A110.28992 110.28992 0 0 1 916.48 43.51999999999998V398.81216a110.2848 110.2848 0 0 1-110.23872 110.09024zM314.63936 591.23712c0 99.84 88.09984 181.0688 196.3776 181.0688s196.38272-81.2288 196.38272-181.0688v-82.33472H314.63936V591.23712zM849.00864 43.51999999999998a42.78784 42.78784 0 0 0-42.76736-42.71104H222.87872a42.78784 42.78784 0 0 0-42.76736 42.71104V398.81216a42.78784 42.78784 0 0 0 42.76736 42.71104h583.36256a42.78784 42.78784 0 0 0 42.76736-42.71104V43.51999999999998z m-223.60064 143.74912a33.74592 33.74592 0 0 1-44.544-17.07008 87.424 87.424 0 1 0-79.67232 122.78272 33.62816 33.62816 0 0 1 24.00256-62.2336l65.94048 16a48.34816 48.34816 0 0 1 35.57376 58.32704l-16.03072 65.85856a33.73056 33.73056 0 0 1-65.536-15.91296l0.3072-1.2544a154.52672 154.52672 0 1 1 97.0752-210.97984 33.66912 33.66912 0 0 1-17.11616 44.48256z"  horiz-adv-x="1024" />

    
    <glyph glyph-name="cooperation" unicode="&#59140;" d="M972.8 542.8736a261.58592 261.58592 0 0 1-446.37696 184.52992L512 713.00608l-14.42816 14.39744a261.83168 261.83168 0 0 1-369.78688 0 260.608 260.608 0 0 1 0-369.05984l23.93088-23.8848a151.424 151.424 0 0 1 34.432-160.96256l155.06432-154.76224a151.70048 151.70048 0 0 1 170.496-30.41792 152.36096 152.36096 0 0 1 171.0592 30.41792l155.06944 154.76224a151.24992 151.24992 0 0 1 34.3552 160.89088l24.00768 23.95648A258.99008 258.99008 0 0 1 972.8 542.8736z m-261.48352 194.18112A194.10432 194.10432 0 0 0 848.896 405.57056l-14.48448-14.44864-167.56224 162.11968a33.48992 33.48992 0 0 1-5.35552 4.21888c-0.24576 0.21504-0.42496 0.47104-0.68096 0.68096a33.50528 33.50528 0 0 1-47.104-4.70016c-48.29184-58.92096-95.3088-89.76896-139.74528-91.67872-37.34528-1.77152-67.10784 18.24768-84.81792 34.20672l184.576 184.2176a193.49504 193.49504 0 0 0 137.59488 56.86784zM388.5312 65.95583999999997L233.472 220.71808a84.72064 84.72064 0 0 0 0 119.84896 71.05024 71.05024 0 0 0 99.66592 0.40448l176.48128-173.30688a70.59968 70.59968 0 0 0 0.87552-99.80416l-1.87392-1.90464a85.12512 85.12512 0 0 0-120.0896 0z m401.9968 154.76224l-155.06944-154.76224a85.1456 85.1456 0 0 0-60.928-24.74496 137.40032 137.40032 0 0 1-17.98656 174.08L380.06272 388.5824a138.18368 138.18368 0 0 1-190.3616 2.41664L175.104 405.56544a194.37056 194.37056 0 0 0 275.15392 274.6112l14.42304-14.39232-130.4576-130.2016a56.32 56.32 0 0 1-0.62464-78.87872c23.72096-24.30976 73.98912-64.65536 143.27296-61.67552 56.04864 2.41664 111.4624 32.43008 165.08416 89.28256l148.57216-143.73888a84.62848 84.62848 0 0 0 0-119.85408z"  horiz-adv-x="1024" />

    
    <glyph glyph-name="user-add" unicode="&#59141;" d="M577.024 5.662720000000036H185.07776a45.98784 45.98784 0 0 0-36.5312 17.87904 47.52896 47.52896 0 0 0-8.58624 40.87808 378.96704 378.96704 0 0 0 368.2304 288.768 373.80608 373.80608 0 0 0 174.24384-42.46528 33.52064 33.52064 0 0 1 30.72 59.58144 440.71936 440.71936 0 0 1-70.90688 29.28128 232.76544 232.76544 0 1 1-268.2368 0.06656 446.16192 446.16192 0 0 1-298.89536-319.05792 114.46272 114.46272 0 0 1 20.78208-98.4064A112.31232 112.31232 0 0 1 185.07776-61.440000000000055H577.024a33.55136 33.55136 0 0 1 0 67.10272zM342.23616 590.53568a165.95968 165.95968 0 1 0 165.95968-166.68672 166.51264 166.51264 0 0 0-165.95968 166.68672z m566.44096-448.43008h-100.09088v100.52608a33.408 33.408 0 1 1-66.81088 0v-100.52608h-100.09088a33.55136 33.55136 0 0 1 0-67.10272h100.09088v-100.5312a33.408 33.408 0 1 1 66.81088 0v100.5312h100.09088a33.55136 33.55136 0 0 1 0 67.10272z"  horiz-adv-x="1024" />

    
    <glyph glyph-name="invite" unicode="&#59142;" d="M879.2672 485.3712a68.8176 68.8176 0 0 1-36.9216 8.2416v175.776A141.984 141.984 0 0 1 700.5056 811.2H327.776a141.984 141.984 0 0 1-141.84-141.8112v-176.64A68.6928 68.6928 0 0 1 108.8 424.4256v-316.2144A141.984 141.984 0 0 1 250.64-33.60000000000002h522.72A141.984 141.984 0 0 1 915.2 108.21119999999996V424.848a68.9184 68.9184 0 0 1-35.9328 60.5232zM327.776 746.1792h372.7296a76.8816 76.8816 0 0 0 76.8-76.8v-206.904l-265.2192-170.6784a3.9216 3.9216 0 0 0-4.2624 0l-256.8528 167.232V669.3888A76.8816 76.8816 0 0 0 327.776 746.1792z m522.3936-637.968a76.8864 76.8864 0 0 0-76.8-76.8H250.64a76.8816 76.8816 0 0 0-76.8 76.8V424.4256a3.5904 3.5904 0 0 0 2.0496 3.4464 4.032 4.032 0 0 0 1.92 0.5376 3.6624 3.6624 0 0 0 2.0784-0.7056l292.4448-190.392a69.0384 69.0384 0 0 1 74.9472-0.192l296.8224 191.04a3.6384 3.6384 0 0 0 3.9984 0.144 3.6 3.6 0 0 0 2.0496-3.4464v-316.6368zM484.16 591.9408000000001h207.84a32.5104 32.5104 0 1 1 0 65.0208H484.16a32.5104 32.5104 0 1 1 0-65.0208zM337.3712 471.9744H692a32.5104 32.5104 0 1 1 0 65.0208H337.3712a32.5104 32.5104 0 1 1 0-65.0208z"  horiz-adv-x="1024" />

    
    <glyph glyph-name="analyze" unicode="&#59143;" d="M894.992-19.200000000000045H171.3296A76.9968 76.9968 0 0 0 94.4 57.69119999999998V762.2064a34.608 34.608 0 0 0 69.216 0v-704.5152a7.7232 7.7232 0 0 1 7.7136-7.7088H894.992a34.5936 34.5936 0 1 0 0-69.1824zM248.48 260.7744a34.5936 34.5936 0 0 0-24 59.496l206.544 198.984a34.608 34.608 0 0 0 48.48-0.4464l115.152-115.0992 199.4976 194.9712a34.5984 34.5984 0 1 0 48.384-49.4688l-223.9632-218.88a34.608 34.608 0 0 0-48.6576 0.2784L454.5488 445.8768 272.48 270.4656a34.4736 34.4736 0 0 0-24-9.6912z"  horiz-adv-x="1024" />

    
    <glyph glyph-name="hotspot" unicode="&#59144;" d="M512 136.03840000000002a247.9616 247.9616 0 1 0 51.83488 490.496 35.84 35.84 0 1 0-14.90432-70.08256 176.128 176.128 0 1 1 135.51104-135.52128 35.84 35.84 0 1 0 70.08256 14.92992A248.16128 248.16128 0 0 0 512 136.03840000000002z m0-197.4784a445.44 445.44 0 1 0 190.91456 848 35.84 35.84 0 0 0-30.7456-64.72192A370.41664 370.41664 0 0 1 512 757.7855999999999 373.7856 373.7856 0 1 1 885.7856 384a369.78176 369.78176 0 0 1-40.54528 169.50784 35.84 35.84 0 1 0 63.82592 32.55296A440.69888 440.69888 0 0 0 957.44 384a445.952 445.952 0 0 0-445.44-445.44z m-1.93024 411.136a35.84 35.84 0 0 0-25.32864 61.1584L852.64384 778.752a35.84 35.84 0 0 0 50.65728-50.6624l-367.90272-367.90784a35.6864 35.6864 0 0 0-25.32864-10.48576z"  horiz-adv-x="1024" />

    
    <glyph glyph-name="eye-open" unicode="&#59145;" d="M515.47136 30.720000000000027c-336.06656 0-450.7392 275.62496-470.31808 330.88a73.15968 73.15968 0 0 0 0.47104 50.07872c19.968 53.08416 135.7056 318.464 454.85568 330.36288 320.5632 11.99104 453.50912-265.52832 476.89216-321.27488a73.10848 73.10848 0 0 0 2.10944-50.85696C961.06496 313.27232000000004 852.14208 30.720000000000027 515.47136 30.720000000000027zM109.78304 384.59392c23.70048-66.8928 122.99776-285.14816 405.68832-285.14816 282.02496 0 376.5504 223.31392 398.80704 291.75296a4.15744 4.15744 0 0 1-0.13312 2.93888c-28.53376 68.03968-142.45888 289.24416-411.136 279.23456-268.86656-10.0352-368.95744-221.38368-393.216-285.92128a4.17792 4.17792 0 0 1 0-2.85184z m402.25792-178.62144A182.12352 182.12352 0 1 0 693.76 388.096a182.13376 182.13376 0 0 0-181.71904-182.12352z m0 295.52128a113.39776 113.39776 0 1 1 113.152-113.39776 113.408 113.408 0 0 1-113.152 113.39776z"  horiz-adv-x="1024" />

    
    <glyph glyph-name="eye-close" unicode="&#59146;" d="M179.44064 165.88800000000003a34.18112 34.18112 0 0 0-25.8048 11.71968l-6.144 7.04512a539.4176 539.4176 0 0 0-102.33856 171.80672 73.1648 73.1648 0 0 0 0.47616 50.06848c19.968 53.07904 135.7056 318.464 454.84544 330.35264a478.27968 478.27968 0 0 0 177.2544-25.6 34.3552 34.3552 0 0 0-22.65088-64.8704 411.55072 411.55072 0 0 1-152.064 21.8112c-268.86656-10.0352-368.95744-221.37856-393.216-285.91104a4.18816 4.18816 0 0 1 0-2.85696 468.32128 468.32128 0 0 1 89.05216-149.24288l6.37952-7.296a34.3552 34.3552 0 0 0-25.78944-57.02656z m336.03072-140.288a532.21888 532.21888 0 0 0-157.74208 22.84544 34.3552 34.3552 0 0 0 20.26496 65.65376 464.0512 464.0512 0 0 1 137.47712-19.77344c282.01984 0 376.5504 223.30368 398.80704 291.7376a4.17792 4.17792 0 0 1-0.128 2.92864 527.42656 527.42656 0 0 1-93.73184 145.77152 34.304 34.304 0 1 0 50.56 46.42816 599.23456 599.23456 0 0 0 106.38848-165.5552 73.1648 73.1648 0 0 0 2.1248-50.85184C961.06496 308.14207999999996 852.14208 25.600000000000023 515.47136 25.600000000000023zM364.5952 348.60032a34.304 34.304 0 0 0-34.304 34.36544 182.13376 182.13376 0 0 0 181.76 182.1184 34.36032 34.36032 0 0 0 0-68.72576 113.408 113.408 0 0 1-113.152-113.39264 34.304 34.304 0 0 0-34.304-34.36544z m147.456-147.75296a34.36032 34.36032 0 0 0 0 68.72064 113.408 113.408 0 0 1 113.152 113.39776 34.304 34.304 0 1 0 68.57728 0 182.12864 182.12864 0 0 0-181.73952-182.1184z m-297.472-153.76896a34.36032 34.36032 0 0 0-24.2432 58.65472L799.83616 716.5184a34.304 34.304 0 0 0 48.4864-48.5888L238.81728 57.14431999999999a34.1248 34.1248 0 0 0-24.2432-10.06592z"  horiz-adv-x="1024" />

    
    <glyph glyph-name="user-cancel" unicode="&#59147;" d="M597.504 2.0940799999999626H193.65888a47.52896 47.52896 0 0 0-37.64224 18.28864 48.34304 48.34304 0 0 0-8.84736 41.82528 391.71072 391.71072 0 0 0 558.99648 252.01664 34.34496 34.34496 0 1 1 31.66208 60.95872 455.8592 455.8592 0 0 1-73.05728 29.95712 239.85664 239.85664 0 1 1-276.40832 0.07168 457.856 457.856 0 0 1-308.00896-326.43072A116.82304 116.82304 0 0 1 193.65888-66.55999999999995H597.504a34.304 34.304 0 1 1 0 68.65408zM355.60448 600.48896a171.008 171.008 0 1 0 171.008-170.53696 170.97216 170.97216 0 0 0-171.008 170.53696z m508.57472-493.12768l72.92928 72.73472a34.37056 34.37056 0 1 1-48.67584 48.5376l-72.92928-72.7296-72.9344 72.7296a34.37056 34.37056 0 1 1-48.67584-48.5376l72.9344-72.73472-72.9344-72.704a34.37056 34.37056 0 0 1 48.67584-48.54272l72.9344 72.73472 72.92928-72.73472a34.37056 34.37056 0 0 1 48.67584 48.54272z"  horiz-adv-x="1024" />

    
    <glyph glyph-name="sales" unicode="&#59148;" d="M468.00384 345.72288000000003a32.9472 32.9472 0 1 1 0-65.88928h70.39488v-48.29184a32.97792 32.97792 0 0 1 65.95072 0v48.29184h70.71232a32.9472 32.9472 0 1 1 0 65.88928h-70.71232v24.78592h70.71232a32.94208 32.94208 0 1 1 0 65.88928h-32.768l33.07008 46.08a32.96256 32.96256 0 0 1-53.60128 38.4l-50.52416-70.44096-50.49856 66.44736a32.96256 32.96256 0 0 1-52.5312-39.84384l30.89408-40.64768h-31.09888a32.94208 32.94208 0 1 1 0-65.88928h70.39488v-24.78592H468.00384zM822.53312 783.36H306.0224a145.24416 145.24416 0 0 1-145.14176-145.00352V539.4944l-43.19232 43.1616a32.96256 32.96256 0 1 1-46.62784-46.592l92.60032-92.52352a48.128 48.128 0 0 1 68.06528 0L324.34176 536.0640000000001a32.96256 32.96256 0 1 1-46.62784 46.592L226.816 531.80928v106.5472a79.24736 79.24736 0 0 0 79.2064 79.11424h516.51072a79.24736 79.24736 0 0 0 79.19616-79.11936v-513.82784a79.24736 79.24736 0 0 0-79.19616-79.11424H306.0224a79.24224 79.24224 0 0 0-79.2064 79.11424v140.5184a32.97792 32.97792 0 0 1-65.95072 0v-140.5184A145.23904 145.23904 0 0 1 306.0224-20.480000000000018h516.51072A145.24416 145.24416 0 0 1 967.68 124.52351999999996V638.3564799999999A145.24416 145.24416 0 0 1 822.53312 783.36z"  horiz-adv-x="1024" />

    
    <glyph glyph-name="user-win" unicode="&#59149;" d="M585.69216 6.05183999999997H190.976a46.31552 46.31552 0 0 0-36.78208 17.98144 47.72864 47.72864 0 0 0-8.64768 41.1136 381.54752 381.54752 0 0 0 370.82624 290.45248 376.89856 376.89856 0 0 0 175.48288-42.70592 33.72032 33.72032 0 0 1 30.94528 59.904 444.28288 444.28288 0 0 1-71.40864 29.45024 234.40896 234.40896 0 1 1-270.1312 0.06656 448.98816 448.98816 0 0 1-301.00992-320.896 115.01056 115.01056 0 0 1 20.93568-98.97472A113.152 113.152 0 0 1 190.976-61.440000000000055h394.69056a33.74592 33.74592 0 0 1 0.0256 67.49184zM349.27104 594.304a167.13216 167.13216 0 1 0 167.12704-167.64928 167.58272 167.58272 0 0 0-167.12704 167.64928z m577.82784-388.06528a33.5616 33.5616 0 0 1-47.56992 0l-152.27904-152.7552-84.736 84.992a33.6896 33.6896 0 0 1-47.56992-47.7184L700.73856-15.360000000000014c0.41984-0.42496 0.91648-0.7168 1.3568-1.11616 0.47104-0.512 0.82944-1.13664 1.34144-1.64864a33.55136 33.55136 0 0 1 47.56992 0l176.09216 176.64a33.792 33.792 0 0 1 0 47.72352z"  horiz-adv-x="1024" />

    
    <glyph glyph-name="contacts" unicode="&#59152;" d="M821.81632 803.84H284.51328A151.40352 151.40352 0 0 1 133.5296 652.36992v-121.48736H85.504a34.41152 34.41152 0 0 1 0-68.82816h48.0256v-128.47104H85.504a34.41664 34.41664 0 0 1 0-68.82816h48.0256v-149.12512A151.40352 151.40352 0 0 1 284.51328-35.84000000000003h537.30304A151.40352 151.40352 0 0 1 972.8 115.63008000000002V652.36992A151.40352 151.40352 0 0 1 821.81632 803.84zM904.192 115.63008000000002a82.6112 82.6112 0 0 0-82.37568-82.64704H284.51328a82.6112 82.6112 0 0 0-82.3808 82.64704V264.75519999999995h50.31424a34.41664 34.41664 0 0 1 0 68.82816h-50.31424V462.0544h50.31424a34.41152 34.41152 0 0 1 0 68.82816h-50.31424V652.36992a82.60608 82.60608 0 0 0 82.3808 82.64704h537.30304A82.60608 82.60608 0 0 0 904.192 652.36992v-536.73984zM564.59776 389.7856a149.12512 149.12512 0 1 1-148.64384 149.12512 149.05344 149.05344 0 0 1 148.64384-149.12512z m0 229.4272a80.30208 80.30208 0 1 0-80.03584-80.30208 80.26112 80.26112 0 0 0 80.03584 80.30208z m0-259.24608a239.73376 239.73376 0 0 1-238.80704-215.60832 54.35392 54.35392 0 0 1 13.57312-41.87648 53.76 53.76 0 0 1 39.936-17.82272h370.64704a53.76 53.76 0 0 1 39.936 17.82272 54.3488 54.3488 0 0 1 13.57312 41.87648 239.72864 239.72864 0 0 1-238.85824 215.60832z m-168.09984-206.47936a171.47392 171.47392 0 0 0 336.20992 0H396.49792z"  horiz-adv-x="1024" />

    
    <glyph glyph-name="pulltop" unicode="&#59247;" d="M512-64c-247.039484 0-448 200.960516-448 448S264.960516 832 512 832 960 631.039484 960 384 759.039484-64 512-64zM512 768c-211.744443 0-384-172.255557-384-384s172.255557-384 384-384 384 172.255557 384 384S723.744443 768 512 768zM694.463217 437.632361l-158.495686 160.25545c-9.34412 9.471415-23.167639 11.840129-34.784142 7.135385-0.736245-0.287273-1.312512-0.992555-2.016073-1.343475-2.975944-1.47249-5.951888-3.072275-8.447897-5.5356-0.032684-0.032684-0.032684-0.063647-0.063647-0.096331-0.032684-0.032684-0.063647-0.032684-0.096331-0.063647l-159.359226-158.911974c-12.512727-12.480043-12.54369-32.735385-0.063647-45.248112 6.239161-6.271845 14.463432-9.407768 22.65674-9.407768 8.160624 0 16.352211 3.103239 22.591372 9.34412l103.616181 103.296224 0-305.056632c0-17.695686 14.336138-31.99914 32.00086-31.99914s32.00086 14.303454 32.00086 31.99914L544.00258 498.752748l104.959656-106.112189c6.239161-6.335493 14.496116-9.504099 22.751351-9.504099 8.12794 0 16.25588 3.072275 22.496761 9.247789C706.783282 404.800645 706.912297 425.055987 694.463217 437.632361z"  horiz-adv-x="1024" />

    
    <glyph glyph-name="pullbottom" unicode="&#59252;" d="M512-64c-247.039484 0-448 200.960516-448 448S264.960516 832 512 832 960 631.039484 960 384 759.039484-64 512-64zM512 768c-211.744443 0-384-172.255557-384-384s172.255557-384 384-384 384 172.255557 384 384S723.744443 768 512 768zM694.559548 373.855987c-12.54369 12.607338-33.375299 12.640022-45.951673 0.063647l-104.608735-103.903454L543.99914 576.672598c0 17.759333-14.208843 32.160839-32.00086 32.160839-17.759333 0-32.00086-14.399785-32.00086-32.160839l0-308.319849-105.215966 106.688456c-12.480043 12.607338-32.704421 12.736353-45.311759 0.25631-12.640022-12.512727-12.672705-32.895364-0.192662-45.504421l159.359226-161.055342c6.271845-6.335493 14.592447-9.567746 22.880366-9.567746 8.160624 0 16.383174 3.168606 22.624056 9.311437 0.032684 0.063647 0.032684 0.063647 0.063647 0.127295 0.032684 0 0.063647 0 0.096331 0.063647l160.191802 159.679183C707.072275 340.895256 707.103239 361.27961300000004 694.559548 373.855987z"  horiz-adv-x="1024" />

    
    <glyph glyph-name="pullright" unicode="&#59256;" d="M512-64c-247.039484 0-448 200.960516-448 448S264.960516 832 512 832 960 631.039484 960 384 759.039484-64 512-64zM512 768c-211.744443 0-384-172.255557-384-384s172.255557-384 384-384 384 172.255557 384 384S723.744443 768 512 768zM732.959548 394.847574c-0.032684 0.127295-0.192662 0.25631-0.25631 0.383604-1.536138 3.615858-3.648542 7.071738-6.591802 10.047682-0.032684 0.032684-0.063647 0.032684-0.096331 0.063647-0.032684 0.032684-0.032684 0.063647-0.063647 0.096331l-158.911974 159.359226c-12.480043 12.480043-32.704421 12.576374-45.248112 0.063647-12.512727-12.480043-12.54369-32.735385-0.063647-45.248112l103.328907-103.616181L320 415.99742c-17.664722 0-31.99914-14.336138-31.99914-32.00086s14.336138-32.00086 31.99914-32.00086l306.752748 0-106.112189-104.959656c-12.576374-12.447359-12.672705-32.671738-0.25631-45.248112 6.239161-6.335493 14.496116-9.504099 22.751351-9.504099 8.12794 0 16.25588 3.103239 22.496761 9.247789l160.25545 158.495686C735.328262 369.407553 737.72794 383.232791 732.959548 394.847574z"  horiz-adv-x="1024" />

    
    <glyph glyph-name="pullleft" unicode="&#59258;" d="M512-64c-247.039484 0-448 200.960516-448 448S264.960516 832 512 832 960 631.039484 960 384 759.039484-64 512-64zM512 768c-211.744443 0-384-172.255557-384-384s172.255557-384 384-384 384 172.255557 384 384S723.744443 768 512 768zM290.367854 371.647252c0.032684-0.127295 0.192662-0.25631 0.25631-0.383604 1.536138-3.615858 3.648542-7.071738 6.591802-10.047682 0.032684-0.032684 0.063647-0.032684 0.096331-0.063647s0.032684-0.063647 0.063647-0.096331l158.911974-159.359226c12.480043-12.512727 32.704421-12.576374 45.248112-0.063647 12.512727 12.480043 12.54369 32.704421 0.063647 45.248112l-103.327187 103.616181 305.056632 0c17.664722 0 31.99914 14.336138 31.99914 32.00086s-14.336138 32.00086-31.99914 32.00086L396.576374 414.499126l106.112189 104.959656c12.576374 12.447359 12.672705 32.671738 0.25631 45.248112-6.240882 6.335493-14.496116 9.504099-22.751351 9.504099-8.12794 0-16.25588-3.103239-22.496761-9.247789l-160.25545-158.495686C288.00086 397.087273 285.632146 383.29643899999996 290.367854 371.647252z"  horiz-adv-x="1024" />

    
    <glyph glyph-name="triangle-left" unicode="&#58915;" d="M962 384q0 93.03222656-35.70117188 175.23632813Q891.6875 641.44921875 830.56835938 702.56835938 769.44921875 763.6875 687.23632813 798.29882813 605.03222656 834 512 834T336.76367187 798.29882813Q254.55078125 763.6875 193.43164062 702.56835938 132.3125 641.44921875 97.70117187 559.23632813 62 477.03222656 62 384t35.70117188-175.23632813Q132.3125 126.55078125 193.43164062 65.43164062000005 254.55078125 4.3125 336.76367187-30.298828129999947 418.96777344-66 512-66t175.23632813 35.70117188Q769.44921875 4.3125 830.56835938 65.43164062000005 891.6875 126.55078125 926.29882813 208.76367187000005 962 290.96777344 962 384z m-588.46289063 0l207.69433594 207.69433594v-415.38867188L373.53710937 384z"  horiz-adv-x="1024" />

    
    <glyph glyph-name="triangle-top" unicode="&#58917;" d="M962 384q0 93.03222656-35.70117188 175.23632813Q891.6875 641.44921875 830.56835938 702.56835938 769.44921875 763.6875 687.23632813 798.29882813 605.03222656 834 512 834T336.76367187 798.29882813Q254.55078125 763.6875 193.43164062 702.56835938 132.3125 641.44921875 97.70117187 559.23632813 62 477.03222656 62 384t35.70117188-175.23632813Q132.3125 126.55078125 193.43164062 65.43164062000005 254.55078125 4.3125 336.76367187-30.298828129999947 418.96777344-66 512-66t175.23632813 35.70117188Q769.44921875 4.3125 830.56835938 65.43164062000005 891.6875 126.55078125 926.29882813 208.76367187000005 962 290.96777344 962 384z m-242.30566406-69.23144531H304.30566406L512 522.46289063l207.69433594-207.69433594z"  horiz-adv-x="1024" />

    
    <glyph glyph-name="alarm-clock" unicode="&#58924;" d="M516.04296875 58.198242189999974q137.3203125 3.0234375 228.70019531 94.41210937 91.37988281 91.38867188 94.41210938 228.70898438-3.03222656 137.3203125-94.41210938 228.70019531Q653.36328125 701.39941406 516.04296875 704.43164063q-137.32910156-3.03222656-228.70898438-94.41210938-91.37988281-91.37988281-94.41210937-228.70019531 3.03222656-137.3203125 94.41210938-228.70898438Q378.71386719 61.221679689999974 516.04296875 58.198242189999974z m0-64.62597656q-164.59277344 4.04296875-274.1484375 113.59863281T128.3046875 381.31054687000005q4.03417969 164.58398438 113.58984375 274.13964844Q351.45019531 765.00585938 516.04296875 769.04882813q164.58398438-4.04296875 274.13964844-113.59863282Q899.73828125 545.89453125 903.77246094 381.31054687000005q-4.03417969-164.58398438-113.58984375-274.13964843Q680.62695313-2.384765629999947 516.04296875-6.427734379999947z m-222.14355469 71.69238281l56.54003907-32.30859375-48.46289063-83.8125Q291.87792969-66 273.70214844-66t-27.26367188 15.65332031q-9.08789063 15.64453125-1.01074219 31.80761719l48.47167969 83.80371094z m444.27832031 0l-56.54003906-32.30859375 48.46289063-83.8125q10.09863281-15.14355469 28.27441406-15.14355469t27.26367187 15.65332031q9.08789063 15.64453125 1.01074219 31.80761719l-48.47167969 83.80371094zM516.04296875 381.31054687000005h161.55175781q14.1328125 0 23.22070313-9.08789062 9.08789063-9.08789063 9.08789062-23.22949219 0-14.1328125-9.08789062-23.22070312-9.08789063-9.08789063-23.22070313-9.08789063H483.72558594q-14.1328125 0-23.22070313 9.08789063-9.08789063 9.08789063-9.08789062 23.22949218V575.1796875q0 14.1328125 9.08789062 23.22070313 9.08789063 9.08789063 23.22949219 9.08789062 14.1328125 0 23.22070313-9.08789063 9.08789063-9.08789063 9.08789062-23.22070312v-193.86914063zM89.93164062 583.25683594Q58.63378906 632.73046875 64.18847656 688.26855469q5.5546875 55.53808594 47.45214844 97.44433594 41.89746094 41.90625 97.43554687 47.4609375t105.01171875-25.75195313l-47.4609375-47.45214844q-28.27441406 13.12207031-58.06054687 8.06835938-29.78613281-5.04492188-51.49511719-27.26367188-21.70898438-22.21875-27.26367187-52.00488281t7.57617187-58.06054687l-46.45019531-47.45214844h-1.01074219z m844.13671875 0q31.29785156 49.47363281 25.74316407 105.01171875-5.5546875 55.53808594-46.95117188 97.44433593-41.39648438 41.90625-97.43554687 47.46093751t-105.52148438-25.75195313l47.4609375-47.45214844q28.27441406 13.12207031 58.06054688 8.06835938 29.78613281-5.04492188 51.99609375-27.26367188 22.20996094-22.21875 27.26367187-52.00488281t-8.07714844-58.06054688l47.4609375-47.45214843z"  horiz-adv-x="1024" />

    
    <glyph glyph-name="collection" unicode="&#58950;" d="M210.6642456 173.0625h602.6715088V745.60949707H270.92974854Q245.50189209 744.66192627 228.55273437 727.71276856t-17.88848877-42.37701416V173.0625zM270.92974854 805.875h572.54699706q13.18359375 0 21.66229248-8.47869873 8.47045898-8.47869873 8.47045899-21.66229249v-632.8125q0-13.18359375-8.47045899-21.65405273-8.47869873-8.47045898-21.66229248-8.47045898H180.5232544l-30.13275147-54.62127686V685.3357544Q151.33807373 736.19146729 185.70605469 770.56768799 220.07403565 804.93566895 270.92974854 805.875z m-15.07049561-693.07800293q-18.82781982-0.9475708-31.54174804-13.65325928-12.71392823-12.71392823-12.71392823-31.54998779t12.71392823-31.54998779q12.71392823-12.70568848 31.54174804-13.65325928h557.47650147V112.79699706999997H255.85925293z m0 60.26550293h617.75024415v-150.67199707q-0.9475708-25.4196167-17.89672852-42.37701416-16.94915771-16.94915771-42.37701416-17.88848877H255.85925293q-45.19500732 0.93933106-74.85809326 30.60241699-29.66308594 29.66308594-30.61065674 74.86633301 0.9475708 45.20324708 30.61065674 74.866333T255.85925293 173.0625zM391.4607544 745.60949707V509.24414063l90.40649414 72.50976562 90.39825438-72.50976563V745.60949707H391.4607544zM331.19525146 805.875h301.34399414v-358.78326416q-0.9475708-18.83605958-17.42706299-26.83685303t-31.54174804 3.29589844l-101.70318603 80.98846435L380.1640625 423.55078125q-15.0704956-11.2966919-31.54998779-3.29589844t-17.41882325 26.83685303V805.875z"  horiz-adv-x="1024" />

    
    <glyph glyph-name="copy-doc" unicode="&#58956;" d="M753.07025146 82.66424559999996q-0.93933106-50.85571289-35.31555175-85.22369385Q683.38671875-36.935668950000036 632.5392456-37.875h-421.875q-50.85571289 0.93933106-85.23193359 35.31555176Q91.06433105 31.81677246000004 90.125 82.66424559999996v421.875Q91.06433105 555.38671875 125.43231201 589.76293945q34.36798096 34.36798096 85.23193359 35.30731201v-60.26550292q-25.42785645-0.93933106-42.37701416-17.88848877-16.94915771-16.95739747-17.89672851-42.37701417v-421.875q0.9475708-25.42785645 17.89672851-42.37701416t42.37701416-17.89672851h421.875q25.4196167 0.9475708 42.36877442 17.89672851 16.95739747 16.94915771 17.89672852 42.37701416h60.26550292zM391.4607544 745.60949707q-25.4196167-0.9475708-42.37701417-17.89672852-16.94915771-16.94915771-17.88848877-42.37701415v-421.875q0.93933106-25.4196167 17.88848877-42.36877442 16.95739747-16.95739747 42.37701417-17.89672852h421.875q25.42785645 0.93933106 42.37701416 17.89672852 16.94915771 16.94915771 17.89672851 42.36877442v421.875q-0.9475708 25.42785645-17.89672851 42.37701416t-42.37701416 17.89672851h-421.875z m0 60.26550293h421.875q50.85571289-0.93933106 85.22369385-35.30731201 34.3762207-34.36798096 35.31555175-85.23193359v-421.875q-0.93933106-50.84747315-35.31555175-85.21545411-34.3762207-34.3762207-85.22369385-35.31555175h-421.875q-50.84747315 0.93933106-85.22369385 35.31555175-34.36798096 34.36798096-35.30731201 85.21545411v421.875q0.93933106 50.85571289 35.30731201 85.23193359Q340.61328125 804.93566895 391.4607544 805.875z"  horiz-adv-x="1024" />

    
    <glyph glyph-name="doc-check" unicode="&#58973;" d="M807.30961631 576.85212041L640.57393935 743.58779737v-166.73567696H807.30961631z m26.11204981-64.28257559H576.28257558V769.70863535H190.57833388v-771.42605976h642.84333224V512.5695448199999zM158.42825791 833.99121094h482.14568144l257.13909054-257.13909053v-610.71083262q0-14.06236289-9.03506749-23.09743037-9.04385742-9.04385742-23.10622031-9.04385742H158.42825791q-14.06236289 0-23.09743125 9.04385742-9.03506836 9.03506836-9.03506748 23.09743037V801.84992315q0 14.06236289 9.03506748 23.10621943T158.42825791 834z m319.41777832-584.58999375L659.65480771 431.20119961l46.20365068-45.19291816-228.01242216-228.01242217-158.70255117 159.70449551L364.34519229 362.90206114l113.50084394-113.50084395z"  horiz-adv-x="1024" />

    
    <glyph glyph-name="doc-add" unicode="&#58974;" d="M833.42166612 512.5695448199999H576.28257558V769.70863535H190.57833388v-771.42605976h642.84333224V512.5695448199999zM807.30961631 576.85212041L640.57393935 743.58779737v-166.73567696H807.30961631zM158.42825791 833.99121094h482.14568144l257.13909054-257.13909053v-610.71083262q0-14.06236289-9.03506749-23.09743037-9.04385742-9.04385742-23.10622031-9.04385742H158.42825791q-14.06236289 0-23.09743125 9.04385742-9.03506836 9.03506836-9.03506748 23.09743037V801.84992315q0 14.06236289 9.03506748 23.10621943T158.42825791 834z m321.4304543-514.27818105V448.27818106h64.28257558v-128.56515117h128.57393936v-64.29136377H544.14128779v-128.56515118h-64.28257558V255.42166612000005H351.28477285v64.29136377h128.57393936z"  horiz-adv-x="1024" />

    
    <glyph glyph-name="doc-del" unicode="&#58975;" d="M807.30961631 576.85212041L640.57393935 743.58779737v-166.73567696H807.30961631z m26.11204981-64.28257559H576.28257558V769.70863535H190.57833388v-771.42605976h642.84333224V512.5695448199999zM158.42825791 833.99121094h482.14568144l257.13909054-257.13909053v-610.71083262q0-14.06236289-9.03506749-23.09743037-9.04385742-9.04385742-23.10622031-9.04385742H158.42825791q-14.06236289 0-23.09743125 9.04385742-9.03506836 9.03506836-9.03506748 23.09743037V801.84992315q0 14.06236289 9.03506748 23.10621943T158.42825791 834z m310.38271084-548.43214395l-91.40535791 90.40341358 46.20365068 46.20365068 90.40341445-91.40535703 91.40535703 91.40535703 45.19291817-46.20365068L560.21632578 285.55906699l90.39462539-91.40535791-45.19291816-45.20170635-91.40535703 90.40341358-90.40341445-90.40341358L377.40561084 194.15370908l91.40535791 91.40535792z"  horiz-adv-x="1024" />

    
    <glyph glyph-name="doc" unicode="&#58976;" d="M833.42166612 512.5695448199999H576.28257558V769.70863535H190.57833388v-771.42605976h642.84333224V512.5695448199999zM807.30961631 576.85212041L640.57393935 743.58779737v-166.73567696H807.30961631zM158.42825791 833.99121094h482.14568144l257.13909054-257.13909053v-610.71083262q0-14.06236289-9.03506749-23.09743037-9.04385742-9.04385742-23.10622031-9.04385742H158.42825791q-14.06236289 0-23.09743125 9.04385742-9.03506836 9.03506836-9.03506748 23.09743037V801.84992315q0 14.06236289 9.03506748 23.10621943T158.42825791 834z m160.71522715-449.99560547h385.71302988v-64.28257558H319.14348506V383.99560547z m0 192.85651494h160.71522715v-64.28257559H319.14348506v64.28257559z m0-385.71302988h385.71302988v-64.28257559H319.14348506v64.28257559z"  horiz-adv-x="1024" />

    
    <glyph glyph-name="doc-copy" unicode="&#58977;" d="M126.29136465 576.85212041v-578.56954483h578.56954482V576.85212041H126.29136465z m-32.1412878 64.28257558H737.00219727q14.06236289 0 23.10621943-9.03506836 9.03506836-9.03506836 9.03506836-23.09743036v-642.85212042q0-14.06236289-9.03506836-23.09743125-9.04385742-9.04385742-23.10621943-9.04385654H94.15007685q-14.06236289 0-23.10621943 9.04385654-9.04385742 9.03506836-9.04385742 23.09743125V609.00219727q0 14.06236289 9.04385742 23.09743036 9.04385742 9.03506836 23.10621943 9.03506836zM962 801.84992315v-707.13469601q0-14.06236289-9.04385654-23.09743037-9.03506836-9.04385742-23.09743125-9.04385742H833.42606065v64.28257559h64.29136377V769.70863535H383.43045518v-64.29136377h-64.28257559V801.84992315q0 14.06236289 9.04385655 23.10621943Q337.2268045 834 351.28916739 834h578.56954482q14.06236289 0 23.09743125-9.04385742Q962 815.91228604 962 801.84992315zM254.86530401 223.28037831999995h321.42166611V158.99780273H254.86530401v64.28257559z m0 192.85651494h321.42166611v-64.28257558H254.86530401v64.28257558z"  horiz-adv-x="1024" />

    
    <glyph glyph-name="discover" unicode="&#58978;" d="M512-1.7167968799999471q163.73144531 4.01660156 272.71582031 113.00097657 108.984375 108.984375 113.00097656 272.71582031-4.01660156 163.73144531-113.00097656 272.71582031-108.984375 108.984375-272.71582031 113.00097656-163.73144531-4.01660156-272.71582031-113.00097656-108.984375-108.984375-113.00097656-272.71582031 4.01660156-163.73144531 113.00097656-272.71582031 108.984375-108.984375 272.71582031-113.00097656z m0-64.28320312q-190.84570313 5.01855469-317.91796875 132.09082031Q67.01855469 193.15429687000005 62 384q5.01855469 190.84570313 132.08203125 317.91796875Q321.15429687 828.98144531 512 834q190.84570313-5.01855469 317.90917969-132.08203125Q956.98144531 574.84570313 962 384q-5.01855469-190.84570313-132.09082031-317.90917969Q702.84570313-60.981445310000026 512-66z m214.95410156 647.87695313q-74.32910156-171.76464844-158.203125-255.12890625Q484.87695312 243.375 314.12304687 169.04589843999997q-8.04199219-3.01464844-14.06249999 3.01464843-6.02929688 6.02929688-3.01464844 14.0625Q371.375 356.87695312000005 454.74804687 440.25q83.37304688 83.37304688 255.12890626 158.70410156 8.04199219 3.01464844 14.06249999-3.01464843 6.02929688-6.02050781 3.01464844-14.0625z"  horiz-adv-x="1024" />

    
    <glyph glyph-name="doc-minus" unicode="&#58982;" d="M807.30961631 576.85212041L640.57393935 743.58779737v-166.73567696H807.30961631z m26.11204981-64.28257559H576.28257558V769.70863535H190.57833388v-771.42605976h642.84333224V512.5695448199999zM158.42825791 833.99121094h482.14568144l257.13909054-257.13909053v-610.71083262q0-14.06236289-9.03506749-23.09743037-9.04385742-9.04385742-23.10622031-9.04385742H158.42825791q-14.06236289 0-23.09743125 9.04385742-9.03506836 9.03506836-9.03506748 23.09743037V801.84992315q0 14.06236289 9.03506748 23.10621943T158.42825791 834z m192.85651495-514.27818105h321.43045429v-64.29136377H351.28477285v64.29136377z"  horiz-adv-x="1024" />

    
    <glyph glyph-name="folder-open" unicode="&#58985;" d="M888.18945313 452.95898438H242.66796875L145.23242187 63.208007820000034h645.52148438l97.43554688 389.75097656z m-46.68750001 64.95996094v64.95117188H490.31738281L360.40625 712.79003907H126.95996094v-454.7109375l58.86914062 235.4765625q3.04101563 11.16210938 11.671875 17.76269531 8.62207031 6.60058594 19.80175782 6.60058594h624.20800781zM816.12792969-1.7519531200000529H94.47558594q-14.203125 0-23.34375 9.13183594Q62 16.511718760000008 62 30.714843760000008v714.55078125Q62 759.46875001 71.13183594 768.60937501 80.26367187 777.74121095 94.47558594 777.74121095h292.31542969l129.91992187-129.91992188h357.26660156q14.21191406 0 23.34375-9.13183594 9.13183594-9.13183594 9.13183594-23.34375v-97.43554687h23.34375q15.22265625 0 24.86425781-12.69140625 9.64160156-12.69140625 6.60058594-27.9140625L847.58398438 22.602539070000034q-3.04980469-11.17089844-11.67187501-17.77148437-8.63085938-6.59179688-19.79296875-6.59179688z"  horiz-adv-x="1024" />

    
    <glyph glyph-name="folder-close" unicode="&#58986;" d="M126.29136465 713.45863536v-642.85212041h771.42605976V584.8846960000001H485.89234472L357.31840537 713.45863536H126.29136465zM94.15007685 777.74121095h289.28037833L512.00439453 649.16727159h417.85431768q14.06236289 0 23.09743125-9.03506836 9.04385742-9.04385742 9.04385654-23.10621944v-578.56075664q0-14.06236289-9.04385654-23.09743037-9.03506836-9.04385742-23.09743125-9.04385742H94.15007685q-14.06236289 0-23.10621943 9.04385742Q62 24.402865140000017 62 38.46522715000003V745.59992316q0 14.06236289 9.04385742 23.10621943T94.15007685 777.75000001z"  horiz-adv-x="1024" />

    
    <glyph glyph-name="folder-add" unicode="&#58991;" d="M126.29136465 713.45863536v-642.85212041h771.42605976V584.8846960000001H485.89234472L357.31840537 713.45863536H126.29136465zM94.15007685 777.74121095h289.28037833L512.00439453 649.16727159h417.85431768q14.06236289 0 23.09743125-9.03506836 9.04385742-9.04385742 9.04385654-23.10621944v-578.56075664q0-14.06236289-9.04385654-23.09743037-9.03506836-9.04385742-23.09743125-9.04385742H94.15007685q-14.06236289 0-23.10621943 9.04385742Q62 24.402865140000017 62 38.46522715000003V745.59992316q0 14.06236289 9.04385742 23.10621943T94.15007685 777.75000001z m385.71302989-417.85431768V488.46083262h64.28257558v-128.57393935h128.57393936v-64.28257558H544.14568232v-128.57393937h-64.28257558V295.60431769H351.28916739v64.28257558h128.57393935z"  horiz-adv-x="1024" />

    
    <glyph glyph-name="folder-check" unicode="&#58993;" d="M126.29136465 713.45863536v-642.85212041h771.42605976V584.8846960000001H485.89234472L357.31840537 713.45863536H126.29136465zM94.15007685 777.74121095h289.28037833L512.00439453 649.16727159h417.85431768q14.06236289 0 23.09743125-9.03506836 9.04385742-9.04385742 9.04385654-23.10621944v-578.56075664q0-14.06236289-9.04385654-23.09743037-9.03506836-9.04385742-23.09743125-9.04385742H94.15007685q-14.06236289 0-23.10621943 9.04385742Q62 24.402865140000017 62 38.46522715000003V745.59992316q0 14.06236289 9.04385742 23.10621943T94.15007685 777.75000001z m415.8416417-504.23238018l181.80877148 181.79998242L737.00219727 410.10710597 509.99171855 182.10347286 351.28916739 341.80796837l45.20170722 45.20170722 113.50084394-113.50084482z"  horiz-adv-x="1024" />

    
    <glyph glyph-name="folder-delete" unicode="&#58998;" d="M126.29136465 713.45863536v-642.85212041h771.42605976V584.8846960000001H485.89234472L357.31840537 713.45863536H126.29136465zM94.15007685 777.74121095h289.28037833L512.00439453 649.16727159h417.85431768q14.06236289 0 23.09743125-9.03506836 9.04385742-9.04385742 9.04385654-23.10621944v-578.56075664q0-14.06236289-9.04385654-23.09743037-9.03506836-9.04385742-23.09743125-9.04385742H94.15007685q-14.06236289 0-23.10621943 9.04385742Q62 24.402865140000017 62 38.46522715000003V745.59992316q0 14.06236289 9.04385742 23.10621943T94.15007685 777.75000001z m372.65261045-449.99560547l-91.40535702 90.40341445 46.20365068 46.2036498 90.40341357-91.40535703 90.40341445 91.40535703 46.20364981-46.2036498-91.40535703-90.40341445 91.40535703-90.40341357-46.20364981-46.20365069-90.40341445 91.40535703-90.40341357-91.40535703-46.20365068 46.20365069 91.40535702 90.40341357z"  horiz-adv-x="1024" />

    
    <glyph glyph-name="folder-remove" unicode="&#59019;" d="M126.29136465 713.45863536v-642.85212041h771.42605976V584.8846960000001H485.89234472L357.31840537 713.45863536H126.29136465zM94.15007685 777.74121095h289.28037833L512.00439453 649.16727159h417.85431768q14.06236289 0 23.09743125-9.03506836 9.04385742-9.04385742 9.04385654-23.10621944v-578.56075664q0-14.06236289-9.04385654-23.09743037-9.03506836-9.04385742-23.09743125-9.04385742H94.15007685q-14.06236289 0-23.10621943 9.04385742Q62 24.402865140000017 62 38.46522715000003V745.59992316q0 14.06236289 9.04385742 23.10621943T94.15007685 777.75000001z m257.13909053-417.85431768h321.4304543v-64.28257558H351.28916739v64.28257558z"  horiz-adv-x="1024" />

    
    <glyph glyph-name="book-one" unicode="&#59022;" d="M222.71962168 769.71742441v-771.42605976h642.85212041V769.71742441H222.71962168zM190.57833388 834h707.13469601q14.06236289 0 23.09743125-9.04385742 9.03506836-9.04385742 9.03506748-23.10621943v-835.70863536q0-14.06236289-9.03506748-23.09743037-9.03506836-9.04385742-23.09743125-9.04385742H190.57833388q-14.06236289 0-23.10621943 9.04385742-9.04385742 9.03506836-9.04385654 23.09743037V801.84992315q0 14.06236289 9.04385654 23.10621943T190.57833388 834z m514.27818106-64.28257558h64.28257559v-771.42605977h-64.28257559V769.71742441zM94.14568232 705.42606065z m32.14128779 0h128.57393937q32.14128779 0 32.14128779-32.14128779t-32.14128779-32.1412878H126.28697012q-32.14128779 0-32.1412878 32.1412878t32.1412878 32.14128779zM94.14568232 512.57833388z m32.14128779 0h128.57393937q32.14128779 0 32.14128779-32.15007597 0-32.14128779-32.14128779-32.1412878H126.28697012q-32.14128779 0-32.1412878 32.1412878 0 32.15007685 32.1412878 32.15007597zM94.14568232 319.72181894000005z m32.14128779 0h128.57393937q32.14128779 0 32.14128779-32.14128779 0-32.15007685-32.14128779-32.15007597H126.28697012q-32.14128779 0-32.1412878 32.15007597 0 32.14128779 32.1412878 32.14128779zM94.14568232 126.86530401000005z m32.14128779 0h128.57393937q32.14128779 0 32.14128779-32.14128779t-32.14128779-32.1412878H126.28697012q-32.14128779 0-32.1412878 32.1412878t32.1412878 32.14128779z"  horiz-adv-x="1024" />

    
    <glyph glyph-name="mobile" unicode="&#59028;" d="M254.85839844 769.71679688Q227.73535156 768.70605469 209.65625 750.62695313t-19.08105469-45.20214844v-642.84960938q1.00195313-27.12304688 19.08105469-45.20214844t45.20214844-19.08984375h514.28320312q27.12304688 1.01074219 45.20214844 19.08984375t19.08105469 45.20214844V705.42480469q-1.00195313 27.12304688-19.08105469 45.20214844t-45.20214844 19.08984375H254.85839844z m0 64.28320312h514.28320312Q823.38769531 832.99804688 860.046875 796.33886719q36.65917969-36.65917969 37.66992188-90.9140625v-642.84960938q-1.01074219-54.24609375-37.66992188-90.90527344-36.65917969-36.66796875-90.90527344-37.66992187H254.85839844q-54.24609375 1.00195313-90.90527344 37.66992187-36.65917969 36.66796875-37.66992187 90.90527344V705.42480469Q127.29394531 759.67089844 163.953125 796.33886719 200.61230469 832.99804688 254.85839844 834z m128.56640625-128.57519531h257.15039062q14.0625 0 23.10644532-9.03515625 9.03515625-9.04394531 9.03515625-23.10644532t-9.03515625-23.09765625q-9.04394531-9.03515625-23.10644532-9.03515625H383.42480469q-14.0625 0-23.10644532 9.03515625-9.03515625 9.03515625-9.03515625 23.09765625t9.03515625 23.10644532q9.04394531 9.03515625 23.10644532 9.03515625zM512 62.575195310000026q-27.12304688 1.00195313-45.20214844 19.08105469T448.71875 126.85839843999997q0 27.12304688 18.07910156 45.20214844T512 190.13964843999997q27.12304688 0 45.20214844-18.07910157T575.28125 126.85839843999997q0-27.12304688-18.07910156-45.20214844T512 62.575195310000026z"  horiz-adv-x="1024" />

    
    <glyph glyph-name="loading3" unicode="&#59030;" d="M512.00878906 834q14.0625 0 23.10644531-9.04394531 9.03515625-9.04394531 9.03515625-23.10644532v-192.85839843q0-14.0625-9.03515625-23.09765625Q526.07128906 576.84960938 512.00878906 576.84960938t-23.09765625 9.04394531q-9.04394531 9.03515625-9.04394531 23.09765625V801.84960938q0 14.0625 9.04394531 23.10644531Q497.94628906 834 512.00878906 834z m0-642.85839844q14.0625 0 23.10644531-9.03515625Q544.15039063 173.0625 544.15039063 159v-192.85839844q0-14.0625-9.03515625-23.09765625Q526.07128906-66 512.00878906-66t-23.09765625 9.04394531q-9.04394531 9.03515625-9.04394531 23.09765625V159q0 14.0625 9.04394531 23.10644531Q497.94628906 191.14160156000003 512.00878906 191.14160156000003zM962.00878906 384q0-14.0625-9.04394531-23.10644531-9.03515625-9.03515625-23.09765625-9.03515625H737.00878906q-14.0625 0-23.10644531 9.03515625Q704.8671875 369.9375 704.8671875 384t9.03515625 23.09765625Q722.94628906 416.14160156 737.00878906 416.14160156h192.85839844q14.0625 0 23.09765625-9.04394531Q962.00878906 398.0625 962.00878906 384z m-642.85839844 0q0-14.0625-9.04394531-23.10644531Q301.07128906 351.85839844 287.00878906 351.85839844H94.15039062q-14.0625 0-23.10644531 9.03515625Q62 369.9375 62 384t9.04394531 23.09765625q9.04394531 9.04394531 23.10644532 9.04394531H287.00878906q14.0625 0 23.09765625-9.04394531Q319.15039062 398.0625 319.15039062 384zM193.58984375 702.41894531q10.04589844 9.03515625 23.10644531 9.03515625t22.09570313-9.03515625l136.60839843-136.60839844q9.04394531-10.04589844 9.04394532-22.60546875 0-12.55078125-9.54492188-22.09570312-9.54492188-9.54492188-22.09570312-9.54492188-12.55957031 0-22.60546875 9.04394532L193.58984375 657.21679688q-9.03515625 9.03515625-9.03515625 22.09570312 0 13.06054688 9.03515625 23.10644531z m455.02734375-455.02734375Q658.66308594 257.4375 671.22265625 257.4375q12.55078125 0 22.60546875-10.04589844L830.43652344 110.78320312000005q9.03515625-9.03515625 9.03515625-22.09570312 0-13.06054688-9.54492188-22.60546875T807.32128906 56.53710937000005q-13.06054688 0-22.09570312 9.03515626L648.6171875 202.18066406000003Q638.57128906 212.2265625 638.57128906 224.78613281000003q0 12.55078125 10.04589844 22.60546875z m181.81054688 455.02734375q9.03515625-10.04589844 9.03515624-23.10644531t-9.03515625-22.09570313L693.81933594 520.60839844q-10.04589844-9.04394531-22.60546875-9.04394532-12.55078125 0-22.09570313 9.54492188-9.54492188 9.54492188-9.54492187 22.09570313 0 12.55957031 9.04394531 22.60546874l136.60839844 136.60839844q9.03515625 9.03515625 22.09570312 9.03515625 13.06054688 0 23.10644531-9.03515625zM375.40039062 247.39160156000003Q385.44628906 237.34570312000005 385.44628906 224.78613281000003q0-12.55078125-10.04589843-22.60546875L238.79199219 65.57226562000005q-9.03515625-9.03515625-22.09570313-9.03515624-13.06054688 0-22.60546875 9.54492187-9.53613281 9.54492188-9.53613281 22.60546875t9.03515625 22.09570313l136.60839844 136.60839843Q340.24414062 257.4375 352.80371094 257.4375q12.55078125 0 22.59667968-10.04589844z"  horiz-adv-x="1024" />

    
    <glyph glyph-name="book-two" unicode="&#59037;" d="M351.28477285 769.71742441v-771.42605976H287.00219727V769.71742441H190.57833388v-771.42605976h642.84333224V769.71742441H351.28477285zM158.42825791 834h707.14348418q14.06236289 0 23.10622031-9.04385742 9.03506836-9.04385742 9.03506748-23.10621943v-835.70863536q0-14.06236289-9.03506748-23.09743037-9.04385742-9.04385742-23.10622031-9.04385742H158.42825791q-14.06236289 0-23.09743125 9.04385742-9.03506836 9.03506836-9.03506748 23.09743037V801.84992315q0 14.06236289 9.03506748 23.10621943T158.42825791 834z m289.28916651-192.85651494z m32.14128779 0h192.85651494q32.14128779 0 32.14128779-32.14128779t-32.14128779-32.14128779H479.85871221q-32.14128779 0-32.14128779 32.14128779t32.14128779 32.14128779z m-32.14128779-192.85651494z m32.14128779 0h192.85651494q32.14128779 0 32.14128779-32.1412878T672.71522715 384.00439453H479.85871221q-32.14128779 0-32.14128779 32.14128779t32.14128779 32.14128779z m-32.14128779-192.85651494z m32.14128779 0h192.85651494q32.14128779 0 32.14128779-32.14128779t-32.14128779-32.1412878H479.85871221q-32.14128779 0-32.14128779 32.1412878t32.14128779 32.14128779z"  horiz-adv-x="1024" />

    
    <glyph glyph-name="monitor1" unicode="&#59038;" d="M544.14160156 153.64160157000003v-128.56640625H737q14.0625 0 23.10644531-9.04394531 9.03515625-9.04394531 9.03515625-23.10644531t-9.03515625-23.10644532Q751.0625-39.21679687000005 737-39.21679687000005H287q-14.0625 0-23.09765625 9.03515625-9.03515625 9.04394531-9.03515625 23.10644532T263.90234375 16.031250010000008Q272.9375 25.075195320000034 287 25.075195320000034h192.85839844V153.64160157000003H190.57519531q-54.24609375 1.00195313-90.9140625 37.66113281Q63.00195312 227.97070312999995 62 282.21679687999995V667.9248047Q63.00195312 722.17089845 99.66113281 758.8388672 136.3203125 795.49804688 190.57519531 796.50000001h642.84960938q54.24609375-1.00195313 90.90527344-37.66113281 36.66796875-36.65917969 37.66992187-90.9140625v-385.70800782q-1.00195313-54.24609375-37.66992187-90.9140625-36.66796875-36.65917969-90.90527344-37.66113281H544.14160156zM190.57519531 732.21679688q-27.12304688-1.01074219-45.20214844-19.08984375t-19.08984375-45.20214843v-385.70800782q1.01074219-27.12304688 19.08984375-45.20214843t45.20214844-19.08984375h642.84960938q27.12304688 1.01074219 45.20214844 19.08984375t19.08984375 45.20214843V667.9248047q-1.01074219 27.12304688-19.08984375 45.20214843t-45.20214844 19.08984375H190.57519531z"  horiz-adv-x="1024" />

    
    <glyph glyph-name="odometer" unicode="&#59045;" d="M512-1.7167968799999471q163.73144531 4.01660156 272.71582031 113.00097657 108.984375 108.984375 113.00097656 272.71582031-4.01660156 163.73144531-113.00097656 272.71582031-108.984375 108.984375-272.71582031 113.00097656-163.73144531-4.01660156-272.71582031-113.00097656-108.984375-108.984375-113.00097656-272.71582031 4.01660156-163.73144531 113.00097656-272.71582031 108.984375-108.984375 272.71582031-113.00097656z m0-64.28320312q-190.84570313 5.01855469-317.91796875 132.09082031Q67.01855469 193.15429687000005 62 384q5.01855469 190.84570313 132.08203125 317.91796875Q321.15429687 828.98144531 512 834q190.84570313-5.01855469 317.90917969-132.08203125Q956.98144531 574.84570313 962 384q-5.01855469-190.84570313-132.09082031-317.90917969Q702.84570313-60.981445310000026 512-66zM190.57519531 384q3.00585938 136.60839844 93.91113281 227.51367188Q375.39160156 702.41894531 512 705.42480469q136.60839844-3.00585938 227.51367188-93.91113281Q830.41894531 520.60839844 833.42480469 384q0-14.0625-9.04394531-23.10644531-9.03515625-9.03515625-23.09765625-9.03515625t-23.09765625 9.03515625Q769.15039063 369.9375 769.15039063 384q-3.01464844 109.48535156-75.33984376 181.81054688-72.31640625 72.31640625-181.81054687 75.33105468-109.48535156-3.01464844-181.81054688-75.33105468-72.31640625-72.32519531-75.33105468-181.81054688 0-14.0625-9.03515625-23.10644531-9.03515625-9.03515625-23.09765625-9.03515625t-23.10644532 9.03515625Q190.58398437 369.9375 190.58398437 384z m379.6875-116.51660156q28.125-22.09570313 35.65722656-55.74902344t-9.04394531-65.29394531q-16.57617188-31.640625-48.71777344-44.70117188t-66.29589843-1.50292969q-34.15429688 11.54882813-52.23339844 40.17480469T417.078125 204.69433593999997q5.52832031 35.65722656 31.13964844 58.26269531 25.61132813 22.59667969 61.76953125 24.609375l61.27734375 188.83300781q6.02929688 17.07714844 23.60742187 21.09375t30.13769532-9.54492187q12.55078125-13.55273438 6.52148437-31.63183594l-61.26855469-188.84179688z m-68.30859375-106.47070313q13.06054688-4.02539063 24.609375 1.50292969t15.57421875 18.58007813q4.01660156 13.06054688-1.50292969 24.609375-5.52832031 11.54882813-18.58886718 15.56542968t-24.609375-1.50292968q-11.54882813-5.51953125-15.56542969-18.58007813-4.02539063-13.06054688 1.50292969-24.609375t18.58886718-15.56542969z"  horiz-adv-x="1024" />

    
    <glyph glyph-name="zoom-out" unicode="&#59129;" d="M822.75488281 120.01171875l129.89355469-129.89355469q9.3515625-10.39746094 9.3515625-23.38769531t-9.87011719-22.86035156q-9.87011719-9.87011719-22.86035156-9.87011719-12.99023438 0-23.38769531 9.3515625L775.98828125 73.24511718999997Q637.78027344-40.01953125 469.43457031-30.149414060000026q-168.34570313 9.87011719-292.0078125 137.68945312Q58.95898437 241.59082031000003 62.07910156 409.93652344q3.12011719 168.34570313 126.78222656 297.20214844Q317.71777344 830.80078125 486.06347656 833.92089844q168.34570313 3.12011719 302.39648438-115.34765625 127.81933594-123.66210938 137.68945312-292.0078125 9.87011719-168.34570313-103.39453125-306.55371094z m-328.37695312-84.17285156q155.87402344 4.15722656 258.75 107.03320312Q856.00390625 245.74804687000005 860.16113281 401.62207031q-4.15722656 155.8828125-107.03320312 258.75878906Q650.25195313 763.25683594 494.37792969 767.4140625q-155.8828125-4.15722656-258.75878906-107.03320313Q132.74316406 557.50488281 128.5859375 401.62207031q4.15722656-155.87402344 107.03320313-258.75Q338.49511719 39.99609375 494.37792969 35.838867189999974zM361.36425781 434.87988281h266.02734375q14.54589844 0 23.89746094-9.3515625t9.3515625-23.89746093q0-14.5546875-9.3515625-23.89746094-9.3515625-9.3515625-23.89746094-9.3515625H361.36425781q-14.5546875 0-23.90625 9.3515625t-9.3515625 23.89746094q0 14.5546875 9.3515625 23.89746093 9.3515625 9.3515625 23.90625 9.3515625z"  horiz-adv-x="1024" />

    
    </font>
</defs>
</svg>
